<?xml version="1.0" encoding="UTF-8"?>
<!-- Generated by Pixelmator Pro 3.1.1 -->
<svg width="360" height="360" viewBox="0 0 360 360" xmlns="http://www.w3.org/2000/svg" xmlns:xlink="http://www.w3.org/1999/xlink">
    <path id="Ellipse" fill="#f691b5" fill-rule="evenodd" stroke="none" d="M 320.625 180 C 320.625 102.334961 257.665039 39.375 180 39.375 C 102.334961 39.375 39.375 102.334961 39.375 180 C 39.375 257.665039 102.334961 320.625 180 320.625 C 257.665039 320.625 320.625 257.665039 320.625 180 Z"/>
    <path id="Path" fill="#ffffff" stroke="#ffffff" stroke-width="5.625" stroke-linecap="round" stroke-linejoin="round" d="M 45.143116 141.268967 C 46.656086 141.333786 46.99646 139.945114 47.255867 139.593887 C 47.515224 139.242661 46.207584 139.561478 46.445347 139.512833 C 46.688488 139.464233 46.866764 138.950867 48.460812 139.350739 C 50.054798 139.745178 51.659592 139.988358 54.415401 141.501282 C 57.171146 143.014297 58.743542 144.424561 62.239544 146.920914 C 65.73555 149.417328 67.956337 151.178833 71.900848 153.9832 C 75.845322 156.792984 77.828384 158.667969 81.967438 160.953613 C 86.111809 163.244675 88.327255 164.649551 92.601326 165.427673 C 96.875443 166.20575 99.144852 166.346222 103.332497 164.838654 C 107.520164 163.325714 109.681534 161.877594 113.539589 157.88446 C 117.392235 153.896744 119.359085 150.860031 122.617355 144.873062 C 125.881027 138.886047 127.237244 134.64975 129.847122 127.949539 C 132.456955 121.254684 133.699768 117.050812 135.672043 111.393433 C 137.644241 105.730667 139.02211 102.715546 139.697571 99.651825 C 140.372986 96.588074 139.35173 95.431732 139.054581 96.069336 C 138.762756 96.70694 138.622284 98.079407 138.217026 102.845215 C 137.811768 107.616425 137.492981 111.560974 137.022903 119.909256 C 136.558121 128.257523 136.217773 134.136414 135.893539 144.592056 C 135.569321 155.047668 135.239731 161.558762 135.396454 172.187347 C 135.553101 182.81044 135.574753 188.873093 136.677063 197.723907 C 137.779312 206.569275 138.584412 211.059509 140.902512 216.425125 C 143.225998 221.785339 144.711945 223.71434 148.278183 224.541046 C 151.844421 225.367783 154.297607 224.476212 158.728394 220.553375 C 163.153778 216.625031 165.67717 212.799423 170.410583 204.921219 C 175.143982 197.037643 177.408035 191.542389 182.39537 181.140823 C 187.382751 170.744598 190.230331 164.206467 195.347366 152.924133 C 200.469803 141.6418 203.30658 134.844284 207.985992 124.723663 C 212.665329 114.603088 215.194138 109.145615 218.749588 102.326508 C 222.299637 95.507355 224.406967 93.016418 225.752411 90.628082 C 227.103256 88.239777 225.86586 87.996643 225.487625 90.39035 C 225.114792 92.78949 224.855423 95.691101 223.87204 102.59668 C 222.883163 109.502258 221.959198 114.905685 220.54895 124.928986 C 219.138641 134.952347 218.090347 141.474289 216.804306 152.718796 C 215.523727 163.963303 214.740234 170.560898 214.145859 181.162399 C 213.551544 191.763916 213.373154 197.561768 213.827011 205.726379 C 214.280975 213.896317 214.637527 217.392319 216.409851 221.996048 C 218.182236 226.599777 219.797821 228.296417 222.683243 228.755737 C 225.574097 229.215012 227.578781 227.923615 230.85318 224.297913 C 234.133087 220.672195 235.651443 217.451752 239.071838 210.621857 C 242.492233 203.791931 244.421234 198.858612 247.971298 190.142868 C 251.521271 181.427155 253.401718 175.969711 256.822083 167.043274 C 260.242432 158.116821 261.863434 153.091629 265.07312 145.510651 C 268.282715 137.935043 269.990173 134.212082 272.87558 129.149078 C 275.761078 124.091476 277.382111 122.313751 279.500244 120.217255 C 281.612946 118.115295 282.158752 118.363846 283.460968 118.661041 C 284.763153 118.958221 284.898224 119.363495 286.016754 121.708557 C 287.135254 124.05365 288.059235 126.015091 289.048065 130.381058 C 290.031494 134.747009 290.77713 137.67569 290.939301 143.543808 C 291.10672 149.417328 290.928497 153.113281 289.874786 159.732452 C 288.826508 166.35704 287.875519 170.209656 285.697937 176.650543 C 283.515015 183.085999 281.99118 186.54425 278.981506 191.931412 C 275.971741 197.313248 273.907654 199.998718 270.644012 203.564987 C 267.380371 207.131226 265.191986 208.222717 262.668549 209.762695 C 260.145203 211.302673 258.78894 210.486755 258.021606 211.259445 C 257.259735 212.037552 258 213.301926 258.837524 213.636917 C 259.675079 213.977371 260.101898 213.561325 262.203857 212.939926 C 264.311188 212.323929 265.775482 211.173004 269.357971 210.535385 C 272.935059 209.897797 275.463898 209.416855 280.11084 209.751877 C 284.75235 210.092331 287.729645 210.55162 292.571136 212.226654 C 297.407166 213.90712 300.049438 215.214767 304.30188 218.132599 C 308.549042 221.055862 310.818451 222.995682 313.811951 226.832138 C 316.810852 230.663132 318.113007 233.013641 319.285614 237.303955 C 320.45816 241.594238 320.436523 244.058228 319.680054 248.283676 C 318.923523 252.509155 318.167114 254.82724 315.503174 258.431305 C 312.844696 262.029968 310.71579 263.742889 306.371368 266.293274 C 302.027069 268.838318 299.071411 269.864929 293.786865 271.161743 C 288.496918 272.458588 285.206238 272.880035 279.937927 272.771973 C 274.669586 272.669281 271.648987 272.0047 267.439819 270.632263 C 263.23053 269.259766 261.469025 267.600891 258.891571 265.915009 C 256.314148 264.229156 255.903534 263.343018 254.558029 262.197479 C 253.212585 261.04657 253.115372 260.279297 252.164291 260.171204 C 251.213318 260.057709 250.00293 260.565674 249.803009 261.651733 C 249.603134 262.737793 249.776001 264.029236 251.164734 265.601654 C 252.553345 267.174042 253.688049 267.849487 256.746429 269.513733 C 259.80481 271.18335 261.825623 272.653107 266.45636 273.922913 C 271.087097 275.19809 274.285889 275.830322 279.894684 275.868134 C 285.50882 275.900574 288.902161 275.479095 294.505493 274.095825 C 300.114288 272.717926 303.221252 271.712921 307.933014 268.957153 C 312.644745 266.201416 315.081726 264.348053 318.064423 260.32251 C 321.047119 256.302368 321.992706 253.622238 322.846405 248.851059 C 323.700226 244.079819 323.662323 241.248444 322.343964 236.466431 C 321.025482 231.678986 319.512543 229.101547 316.259705 224.924683 C 313.006805 220.742462 310.591553 218.737747 306.079681 215.571365 C 301.573181 212.404968 298.817413 211.032486 293.711243 209.087265 C 288.60495 207.147446 285.530426 206.58548 280.543091 205.856018 C 275.555725 205.126541 272.897278 205.196823 268.779877 205.429138 C 264.657074 205.66153 262.538879 205.839798 259.934479 207.023148 C 257.329926 208.206512 255.995377 209.57901 255.763 211.351288 C 255.53064 213.118225 256.94635 215.522766 258.778137 215.873962 C 260.609863 216.219818 262.07962 215.166122 264.916382 213.10202 C 267.747803 211.037903 269.665985 209.535751 272.94046 205.548019 C 276.209564 201.565735 278.246674 198.804596 281.272552 193.185013 C 284.298431 187.565445 285.822235 184.05864 288.070038 177.455658 C 290.323303 170.852676 291.312073 166.962189 292.511688 160.175522 C 293.716644 153.388824 294.024628 149.628067 294.089447 143.516785 C 294.148895 137.405518 293.694977 134.384995 292.835876 129.619171 C 291.971344 124.847931 291.528198 122.632568 289.777496 119.67688 C 288.032257 116.715805 286.589478 115.154236 284.098511 114.8246 C 281.607544 114.489578 279.986511 115.386551 277.328064 118.023438 C 274.664185 120.654907 273.605042 122.659561 270.784485 128.003555 C 267.96936 133.347549 266.386078 137.075882 263.235931 144.743347 C 260.085754 152.416199 258.480927 157.435989 255.033508 166.351654 C 251.591553 175.272675 249.651733 180.703125 246.00444 189.326965 C 242.362503 197.950851 240.27681 202.846329 236.813171 209.470947 C 233.355011 216.090134 231.453033 219.121429 228.708084 222.433731 C 225.957748 225.746002 225.098648 226.280975 223.077744 226.026993 C 221.056793 225.778442 220.073425 225.259705 218.603729 221.180145 C 217.128555 217.095169 216.274796 213.59375 215.712906 205.607483 C 215.156296 197.621262 215.248138 191.790909 215.804672 181.248856 C 216.361267 170.712173 217.139297 164.12001 218.506439 152.918716 C 219.878891 141.717438 221.078461 135.233337 222.650864 125.242401 C 224.21785 115.25148 225.266083 109.950714 226.357605 102.969513 C 227.454529 95.988281 228.605453 93.092041 228.108292 90.330902 C 227.616577 87.575165 226.103607 86.959198 223.882843 89.179993 C 221.667374 91.406189 220.484085 94.46994 217.020447 101.44577 C 213.556885 108.426941 211.174026 113.900604 206.56488 124.075241 C 201.955719 134.244492 199.118912 141.036606 193.985703 152.302765 C 188.847046 163.568848 185.940018 170.096207 180.876953 180.405899 C 175.808563 190.715622 173.398682 196.167709 168.654465 203.851334 C 163.910309 211.529648 161.116699 215.133682 157.15062 218.808044 C 153.179062 222.48233 151.660736 222.866013 148.813126 222.222992 C 145.960098 221.574554 144.955078 220.526291 142.896408 215.576782 C 140.837677 210.627228 139.675919 206.169388 138.530396 197.48616 C 137.379456 188.802841 137.287659 182.723984 137.147156 172.160309 C 137.012054 161.596619 137.374039 155.080093 137.838821 144.66774 C 138.308914 134.249908 138.811371 128.403412 139.492233 120.082153 C 140.178467 111.760849 140.9944 108.005493 141.259155 103.056 C 141.518509 98.106415 141.756302 96.258484 140.816025 95.339874 C 139.875854 94.426727 138.141357 95.45871 136.552811 98.479279 C 134.964172 101.505188 134.71022 104.75264 132.878433 110.453262 C 131.04126 116.159256 129.911972 120.379349 127.383125 126.99852 C 124.848953 133.617722 123.42247 137.799942 120.223595 143.554611 C 117.024841 149.309235 114.982323 152.151443 111.38903 155.782501 C 107.790329 159.413635 105.855919 160.4673 102.235657 161.704681 C 98.609932 162.942047 96.972733 162.75296 93.282158 161.964035 C 89.58625 161.180573 87.587006 159.991821 83.766754 157.776398 C 79.946571 155.561005 77.941864 153.761642 74.181099 150.892426 C 70.420334 148.017838 68.296745 146.234695 64.968239 143.414108 C 61.645168 140.598953 60.375336 139.031921 57.554756 136.811142 C 54.73418 134.590332 53.388737 133.325897 50.859913 132.315445 C 48.325745 131.31044 47.082939 131.337433 44.905323 131.76976 C 42.727798 132.202011 41.0149 132.974701 39.971992 134.476822 C 38.934578 135.979004 38.669819 137.913437 39.707233 139.269684 C 40.7393 140.631348 43.635551 141.204102 45.143116 141.268967"/>
</svg>
