<svg xmlns="http://www.w3.org/2000/svg" id="canvas" viewBox="282.410 273.232 1323.784 161.959"><path d="M 288.57,416.26 C 289.57 415.54, 290.04 414.52, 291.00 412.08 C 291.95 409.63, 291.97 408.21, 293.33 404.04 C 294.69 399.86, 295.46 396.91, 297.80 391.21 C 300.14 385.51, 301.53 382.32, 305.03 375.55 C 308.53 368.79, 310.96 364.92, 315.30 357.40 C 319.64 349.87, 322.13 345.62, 326.73 337.93 C 331.33 330.24, 333.77 326.14, 338.32 318.95 C 342.87 311.75, 345.13 308.07, 349.48 301.95 C 353.83 295.83, 356.42 292.62, 360.08 288.33 C 363.74 284.04, 365.82 282.45, 367.79 280.52 C 369.76 278.59, 369.76 277.86, 369.93 278.68 C 370.11 279.50, 369.76 280.60, 368.66 284.63 C 367.57 288.66, 366.70 292.25, 364.46 298.82 C 362.22 305.38, 360.50 309.79, 357.47 317.45 C 354.43 325.11, 352.52 329.51, 349.29 337.13 C 346.06 344.75, 344.22 348.88, 341.33 355.54 C 338.43 362.21, 336.80 365.38, 334.81 370.44 C 332.83 375.50, 331.63 377.84, 331.41 380.85 C 331.19 383.86, 332.17 385.19, 333.71 385.50 C 335.24 385.82, 336.69 385.26, 339.09 382.43 C 341.49 379.59, 342.57 376.66, 345.69 371.34 C 348.82 366.02, 350.74 362.33, 354.71 355.83 C 358.68 349.32, 360.95 345.39, 365.53 338.80 C 370.11 332.21, 372.73 328.92, 377.60 322.87 C 382.47 316.83, 385.11 313.76, 389.89 308.58 C 394.68 303.40, 397.20 300.83, 401.52 296.97 C 405.83 293.11, 408.04 291.51, 411.48 289.28 C 414.93 287.04, 416.64 286.55, 418.75 285.80 C 420.86 285.06, 421.37 284.70, 422.03 285.54 C 422.70 286.38, 422.47 287.07, 422.06 290.01 C 421.64 292.95, 421.50 295.30, 419.95 300.22 C 418.40 305.15, 417.18 308.29, 414.29 314.63 C 411.40 320.96, 409.31 324.48, 405.48 331.90 C 401.66 339.32, 399.31 343.74, 395.18 351.72 C 391.04 359.70, 388.75 364.04, 384.80 371.80 C 380.84 379.56, 378.69 383.71, 375.39 390.53 C 372.10 397.35, 370.49 400.74, 368.31 405.89 C 366.14 411.05, 364.68 413.08, 364.51 416.31 C 364.34 419.53, 365.45 421.14, 367.45 422.00 C 369.45 422.86, 371.22 422.50, 374.49 420.60 C 377.76 418.70, 379.47 416.61, 383.80 412.48 C 388.12 408.36, 390.77 405.48, 396.12 399.96 C 401.47 394.45, 404.54 391.05, 410.55 384.92 C 416.57 378.78, 420.01 375.40, 426.19 369.29 C 432.38 363.18, 435.71 359.90, 441.48 354.38 C 447.25 348.87, 450.24 346.05, 455.06 341.71 C 459.88 337.37, 462.15 335.53, 465.59 332.69 C 469.03 329.84, 470.59 328.99, 472.25 327.49 C 473.91 325.99, 473.93 325.31, 473.89 325.19 C 473.86 325.07, 473.08 325.08, 472.08 326.88 C 471.08 328.68, 470.66 330.33, 468.89 334.17 C 467.12 338.00, 465.94 340.80, 463.24 346.05 C 460.53 351.30, 458.62 354.68, 455.37 360.42 C 452.13 366.17, 450.00 369.40, 447.02 374.79 C 444.03 380.17, 442.54 382.85, 440.46 387.36 C 438.38 391.87, 437.18 393.88, 436.62 397.35 C 436.05 400.81, 436.25 402.37, 437.64 404.67 C 439.03 406.97, 440.48 408.32, 443.55 408.85 C 446.62 409.38, 448.69 408.80, 453.00 407.32 C 457.31 405.85, 459.72 404.39, 465.08 401.47 C 470.44 398.54, 473.61 396.53, 479.81 392.70 C 486.02 388.87, 489.56 386.50, 496.11 382.34 C 502.66 378.17, 506.25 375.79, 512.55 371.87 C 518.85 367.96, 522.19 366.03, 527.62 362.77 C 533.05 359.50, 535.72 357.99, 539.70 355.57 C 543.68 353.15, 545.55 352.50, 547.51 350.67 C 549.48 348.83, 549.70 347.89, 549.53 346.41 C 549.36 344.94, 548.61 343.85, 546.67 343.29 C 544.73 342.74, 543.01 342.59, 539.83 343.63 C 536.65 344.68, 534.88 346.09, 530.78 348.53 C 526.68 350.97, 524.11 352.42, 519.33 355.82 C 514.54 359.22, 511.66 361.32, 506.87 365.52 C 502.08 369.72, 499.53 372.50, 495.37 376.82 C 491.20 381.15, 488.97 383.42, 486.05 387.13 C 483.13 390.85, 481.55 392.51, 480.77 395.41 C 479.99 398.32, 480.66 399.95, 482.16 401.66 C 483.66 403.37, 485.23 404.30, 488.27 403.96 C 491.31 403.63, 493.27 402.28, 497.34 399.99 C 501.42 397.69, 503.96 395.90, 508.64 392.51 C 513.31 389.11, 515.94 386.84, 520.72 383.01 C 525.51 379.18, 528.34 376.68, 532.57 373.34 C 536.80 370.01, 539.40 368.44, 541.86 366.34 C 544.32 364.23, 544.75 363.28, 544.85 362.83 C 544.96 362.39, 543.86 362.50, 542.37 364.09 C 540.88 365.69, 539.37 367.54, 537.40 370.82 C 535.43 374.10, 534.09 376.70, 532.53 380.49 C 530.96 384.28, 530.11 386.39, 529.57 389.77 C 529.03 393.16, 528.79 394.76, 529.83 397.42 C 530.88 400.09, 531.99 401.72, 534.79 403.10 C 537.58 404.47, 539.68 404.70, 543.81 404.29 C 547.93 403.89, 550.24 402.98, 555.41 401.09 C 560.58 399.19, 563.70 397.67, 569.67 394.83 C 575.64 391.99, 578.97 390.17, 585.28 386.90 C 591.59 383.63, 595.03 381.76, 601.21 378.49 C 607.40 375.21, 610.67 373.44, 616.20 370.51 C 621.73 367.58, 624.36 366.16, 628.88 363.84 C 633.39 361.52, 635.53 360.53, 638.79 358.91 C 642.05 357.28, 643.33 356.92, 645.17 355.72 C 647.02 354.51, 647.28 353.83, 647.99 352.89 C 648.71 351.96, 648.76 351.59, 648.73 351.03 C 648.70 350.48, 648.33 350.22, 647.83 350.11 C 647.34 350.00, 647.25 350.20, 646.25 350.50 C 645.26 350.81, 644.77 350.72, 642.87 351.64 C 640.96 352.56, 639.85 353.26, 636.72 355.10 C 633.60 356.94, 631.62 358.28, 627.23 360.84 C 622.85 363.41, 620.26 364.88, 614.79 367.91 C 609.32 370.94, 606.07 372.73, 599.90 376.01 C 593.73 379.29, 590.28 381.15, 583.96 384.31 C 577.64 387.48, 574.27 389.24, 568.31 391.84 C 562.35 394.44, 559.13 395.80, 554.15 397.30 C 549.16 398.81, 546.86 399.16, 543.41 399.37 C 539.95 399.58, 538.73 399.05, 536.88 398.37 C 535.03 397.69, 534.48 397.45, 534.14 395.98 C 533.80 394.51, 534.37 393.64, 535.18 391.03 C 535.98 388.42, 536.60 386.35, 538.15 382.93 C 539.71 379.50, 541.24 377.26, 542.95 373.89 C 544.66 370.53, 546.29 368.64, 546.72 366.12 C 547.15 363.61, 546.60 362.02, 545.09 361.32 C 543.58 360.62, 542.18 360.81, 539.19 362.63 C 536.20 364.45, 534.30 366.88, 530.16 370.40 C 526.02 373.92, 523.27 376.47, 518.51 380.23 C 513.75 383.99, 511.06 386.13, 506.36 389.21 C 501.67 392.29, 498.89 393.74, 495.04 395.64 C 491.19 397.54, 489.27 397.89, 487.10 398.71 C 484.94 399.54, 484.64 400.10, 484.23 399.74 C 483.81 399.39, 484.03 398.98, 485.02 396.93 C 486.01 394.88, 486.61 393.04, 489.17 389.49 C 491.74 385.93, 493.86 383.45, 497.84 379.16 C 501.82 374.88, 504.35 372.10, 509.07 368.06 C 513.79 364.02, 516.65 362.00, 521.44 358.97 C 526.23 355.93, 528.92 354.72, 533.05 352.89 C 537.17 351.06, 539.28 350.92, 542.05 349.83 C 544.83 348.74, 545.76 348.19, 546.93 347.45 C 548.09 346.70, 548.30 346.16, 547.86 346.10 C 547.43 346.03, 546.77 345.84, 544.75 347.13 C 542.72 348.42, 541.46 349.92, 537.73 352.56 C 533.99 355.19, 531.40 356.89, 526.09 360.30 C 520.77 363.72, 517.43 365.69, 511.15 369.64 C 504.88 373.60, 501.27 375.98, 494.69 380.09 C 488.12 384.19, 484.54 386.52, 478.29 390.15 C 472.03 393.78, 468.76 395.67, 463.42 398.23 C 458.08 400.78, 455.47 401.80, 451.60 402.93 C 447.73 404.06, 446.23 403.91, 444.08 403.88 C 441.93 403.85, 441.48 403.94, 440.85 402.80 C 440.23 401.65, 440.38 400.94, 440.96 398.15 C 441.55 395.35, 442.02 393.17, 443.80 388.82 C 445.58 384.46, 446.99 381.70, 449.88 376.35 C 452.78 371.01, 454.91 367.78, 458.27 362.10 C 461.64 356.43, 463.67 353.12, 466.72 347.98 C 469.77 342.85, 471.48 340.38, 473.52 336.43 C 475.56 332.48, 476.68 330.80, 476.91 328.25 C 477.14 325.70, 476.07 324.51, 474.66 323.68 C 473.25 322.85, 472.14 322.82, 469.86 324.10 C 467.59 325.38, 466.61 326.95, 463.28 330.07 C 459.95 333.19, 457.89 335.20, 453.20 339.72 C 448.51 344.24, 445.55 347.09, 439.83 352.67 C 434.10 358.26, 430.79 361.55, 424.58 367.66 C 418.38 373.76, 414.92 377.14, 408.82 383.19 C 402.71 389.23, 399.56 392.58, 394.05 397.88 C 388.53 403.17, 385.67 405.89, 381.25 409.67 C 376.83 413.46, 374.59 414.79, 371.97 416.81 C 369.35 418.82, 368.87 419.76, 368.15 419.76 C 367.44 419.76, 367.80 419.37, 368.40 416.83 C 369.00 414.28, 369.31 412.06, 371.15 407.01 C 373.00 401.97, 374.50 398.42, 377.63 391.58 C 380.76 384.74, 382.89 380.58, 386.81 372.82 C 390.72 365.06, 393.01 360.73, 397.20 352.78 C 401.38 344.83, 403.74 340.44, 407.72 333.08 C 411.70 325.72, 413.87 322.28, 417.08 315.97 C 420.28 309.67, 421.76 306.67, 423.74 301.56 C 425.73 296.45, 426.83 294.11, 426.98 290.43 C 427.13 286.75, 426.37 284.94, 424.50 283.15 C 422.63 281.37, 420.63 280.90, 417.61 281.52 C 414.59 282.14, 413.00 283.58, 409.38 286.23 C 405.76 288.88, 403.77 290.66, 399.49 294.78 C 395.21 298.90, 392.73 301.52, 387.97 306.83 C 383.21 312.14, 380.60 315.23, 375.69 321.33 C 370.78 327.43, 368.14 330.75, 363.44 337.33 C 358.73 343.90, 356.36 347.81, 352.16 354.21 C 347.95 360.60, 345.78 364.19, 342.42 369.31 C 339.06 374.42, 337.11 376.78, 335.35 379.76 C 333.60 382.74, 333.63 383.85, 333.66 384.22 C 333.68 384.59, 334.64 384.16, 335.47 381.62 C 336.31 379.08, 336.18 376.54, 337.83 371.53 C 339.48 366.51, 340.98 363.25, 343.73 356.56 C 346.48 349.88, 348.32 345.71, 351.58 338.10 C 354.84 330.49, 356.81 326.12, 360.02 318.49 C 363.24 310.87, 365.15 306.57, 367.66 299.97 C 370.17 293.37, 371.74 290.00, 372.56 285.50 C 373.37 281.01, 373.16 279.09, 371.74 277.49 C 370.32 275.89, 368.26 275.73, 365.45 277.51 C 362.65 279.29, 361.32 281.80, 357.72 286.41 C 354.12 291.01, 351.73 294.28, 347.47 300.55 C 343.21 306.82, 340.96 310.52, 336.43 317.76 C 331.90 325.01, 329.46 329.10, 324.82 336.78 C 320.19 344.47, 317.70 348.70, 313.25 356.20 C 308.80 363.69, 306.32 367.53, 302.59 374.24 C 298.86 380.96, 297.31 384.14, 294.58 389.77 C 291.86 395.40, 290.73 398.24, 288.95 402.39 C 287.18 406.53, 286.31 407.83, 285.72 410.49 C 285.14 413.15, 285.45 414.53, 286.02 415.69 C 286.59 416.84, 287.58 416.99, 288.57 416.26" style="stroke: black; fill: black;"/><path d="M 587.66,372.57 C 586.70 372.74, 585.66 373.41, 585.42 374.73 C 585.18 376.05, 585.41 377.50, 586.45 379.16 C 587.50 380.83, 588.23 381.97, 590.63 383.07 C 593.04 384.17, 595.01 384.44, 598.49 384.68 C 601.96 384.92, 604.09 384.51, 608.00 384.26 C 611.91 384.01, 613.89 383.82, 618.04 383.45 C 622.19 383.07, 624.46 382.88, 628.74 382.38 C 633.03 381.87, 635.52 381.39, 639.45 380.91 C 643.38 380.42, 645.42 380.06, 648.39 379.94 C 651.36 379.82, 652.47 379.87, 654.30 380.30 C 656.13 380.74, 656.73 381.04, 657.53 382.09 C 658.32 383.15, 658.04 383.85, 658.27 385.58 C 658.50 387.30, 658.35 388.55, 658.69 390.72 C 659.02 392.89, 659.01 394.25, 659.95 396.42 C 660.90 398.59, 661.60 399.92, 663.42 401.57 C 665.23 403.22, 666.43 403.97, 669.01 404.67 C 671.59 405.38, 673.00 405.67, 676.30 405.10 C 679.59 404.54, 681.47 403.65, 685.47 401.84 C 689.48 400.02, 691.66 398.67, 696.31 396.02 C 700.95 393.37, 703.61 391.70, 708.71 388.58 C 713.80 385.45, 716.65 383.60, 721.77 380.38 C 726.88 377.17, 729.66 375.37, 734.28 372.51 C 738.91 369.65, 741.52 368.05, 744.89 366.10 C 748.25 364.15, 749.83 363.47, 751.12 362.77 C 752.42 362.07, 751.91 361.75, 751.35 362.60 C 750.79 363.45, 749.72 364.46, 748.32 367.02 C 746.93 369.59, 746.12 371.78, 744.37 375.42 C 742.63 379.05, 741.27 381.35, 739.60 385.20 C 737.93 389.05, 737.01 391.18, 736.02 394.65 C 735.03 398.13, 734.55 399.75, 734.63 402.56 C 734.72 405.37, 735.12 406.69, 736.44 408.70 C 737.75 410.71, 738.87 411.72, 741.21 412.60 C 743.54 413.49, 745.18 413.72, 748.10 413.13 C 751.02 412.55, 752.50 411.44, 755.79 409.69 C 759.08 407.94, 760.81 406.75, 764.56 404.37 C 768.31 401.99, 770.56 400.42, 774.54 397.79 C 778.51 395.16, 780.75 393.50, 784.43 391.21 C 788.11 388.93, 789.99 387.86, 792.93 386.37 C 795.87 384.89, 797.22 384.43, 799.14 383.80 C 801.06 383.17, 801.59 383.00, 802.54 383.22 C 803.49 383.43, 803.53 383.86, 803.89 384.88 C 804.25 385.89, 804.20 386.68, 804.34 388.29 C 804.47 389.90, 804.40 390.91, 804.55 392.92 C 804.71 394.93, 804.54 396.29, 805.09 398.34 C 805.64 400.39, 806.03 401.68, 807.31 403.19 C 808.58 404.69, 809.51 405.33, 811.46 405.84 C 813.41 406.36, 814.59 406.58, 817.07 405.75 C 819.55 404.93, 820.89 403.80, 823.86 401.73 C 826.83 399.67, 828.39 397.98, 831.91 395.44 C 835.44 392.90, 837.62 391.36, 841.49 389.03 C 845.36 386.69, 847.61 385.45, 851.24 383.77 C 854.88 382.10, 856.83 381.54, 859.66 380.66 C 862.49 379.78, 863.78 379.56, 865.37 379.38 C 866.96 379.21, 867.35 379.09, 867.61 379.80 C 867.88 380.50, 867.36 381.14, 866.69 382.90 C 866.03 384.65, 865.37 386.11, 864.29 388.57 C 863.22 391.04, 862.08 392.58, 861.34 395.23 C 860.60 397.89, 860.38 399.64, 860.61 401.85 C 860.84 404.06, 861.02 405.13, 862.49 406.29 C 863.96 407.44, 865.31 408.19, 867.96 407.62 C 870.61 407.04, 872.21 405.57, 875.75 403.41 C 879.28 401.26, 881.69 399.35, 885.64 396.84 C 889.60 394.33, 891.95 392.66, 895.52 390.86 C 899.09 389.06, 901.21 388.69, 903.51 387.83 C 905.81 386.97, 906.37 386.41, 907.02 386.57 C 907.68 386.73, 907.16 387.25, 906.76 388.65 C 906.36 390.05, 905.66 391.23, 905.01 393.55 C 904.36 395.88, 903.67 397.56, 903.52 400.27 C 903.36 402.99, 903.32 404.64, 904.23 407.13 C 905.14 409.61, 905.93 411.06, 908.08 412.70 C 910.22 414.34, 911.68 415.19, 914.98 415.33 C 918.27 415.47, 920.28 414.77, 924.56 413.40 C 928.85 412.02, 931.40 410.91, 936.39 408.47 C 941.39 406.03, 944.27 404.29, 949.52 401.19 C 954.78 398.08, 957.83 396.20, 962.67 392.97 C 967.52 389.74, 970.06 388.01, 973.76 385.04 C 977.47 382.08, 979.52 380.81, 981.20 378.15 C 982.88 375.49, 982.88 373.77, 982.17 371.73 C 981.46 369.69, 980.19 368.36, 977.66 367.95 C 975.14 367.55, 973.03 368.11, 969.56 369.71 C 966.10 371.30, 963.91 373.02, 960.34 375.92 C 956.78 378.82, 954.73 380.70, 951.74 384.21 C 948.76 387.73, 947.06 389.82, 945.43 393.49 C 943.79 397.16, 943.08 399.26, 943.57 402.56 C 944.05 405.86, 945.05 407.75, 947.86 409.98 C 950.66 412.22, 952.95 412.77, 957.60 413.74 C 962.25 414.72, 965.24 414.84, 971.09 414.86 C 976.94 414.88, 980.46 414.56, 986.84 413.86 C 993.22 413.15, 996.77 412.51, 1002.98 411.32 C 1009.20 410.14, 1012.64 409.24, 1017.91 407.94 C 1023.19 406.64, 1025.69 406.16, 1029.37 404.83 C 1033.04 403.50, 1035.07 402.41, 1036.29 401.30 C 1037.51 400.19, 1037.09 399.26, 1035.49 399.28 C 1033.88 399.29, 1031.93 400.32, 1028.25 401.38 C 1024.56 402.44, 1022.23 403.22, 1017.06 404.58 C 1011.88 405.93, 1008.49 406.98, 1002.38 408.18 C 996.27 409.38, 992.74 409.98, 986.50 410.56 C 980.26 411.14, 976.76 411.30, 971.17 411.09 C 965.58 410.87, 962.63 410.47, 958.56 409.49 C 954.49 408.50, 952.84 407.68, 950.81 406.17 C 948.78 404.66, 948.60 404.08, 948.41 401.95 C 948.22 399.83, 948.47 398.44, 949.86 395.53 C 951.26 392.61, 952.65 390.46, 955.39 387.38 C 958.14 384.30, 960.21 382.58, 963.59 380.14 C 966.97 377.70, 969.42 376.72, 972.27 375.19 C 975.12 373.66, 976.42 373.06, 977.85 372.49 C 979.28 371.92, 979.54 371.79, 979.41 372.35 C 979.28 372.90, 978.86 373.34, 977.22 375.27 C 975.58 377.21, 974.51 379.06, 971.21 382.02 C 967.91 384.98, 965.40 386.84, 960.71 390.06 C 956.02 393.28, 952.95 395.17, 947.75 398.12 C 942.55 401.07, 939.61 402.72, 934.72 404.82 C 929.82 406.93, 927.18 407.77, 923.26 408.65 C 919.35 409.53, 917.58 409.24, 915.14 409.22 C 912.70 409.21, 912.11 409.25, 911.04 408.58 C 909.98 407.90, 909.80 407.29, 909.81 405.85 C 909.82 404.41, 910.54 403.60, 911.10 401.38 C 911.67 399.15, 912.52 397.38, 912.63 394.72 C 912.75 392.06, 912.50 390.31, 911.68 388.08 C 910.86 385.85, 910.44 384.69, 908.52 383.57 C 906.60 382.45, 905.14 381.92, 902.09 382.49 C 899.03 383.06, 897.06 384.42, 893.24 386.41 C 889.41 388.40, 887.08 390.08, 882.98 392.44 C 878.88 394.81, 876.17 396.32, 872.73 398.25 C 869.28 400.17, 867.51 400.89, 865.75 402.08 C 863.99 403.27, 863.88 404.01, 863.90 404.19 C 863.93 404.37, 864.90 404.21, 865.87 402.98 C 866.84 401.76, 867.58 400.43, 868.76 398.08 C 869.94 395.73, 870.95 394.13, 871.78 391.22 C 872.61 388.32, 873.10 386.29, 872.92 383.56 C 872.73 380.82, 872.29 379.34, 870.84 377.56 C 869.38 375.78, 868.18 375.06, 865.64 374.66 C 863.09 374.26, 861.39 374.57, 858.11 375.55 C 854.82 376.53, 853.00 377.65, 849.21 379.55 C 845.42 381.45, 843.17 382.73, 839.15 385.04 C 835.12 387.36, 832.81 388.87, 829.07 391.13 C 825.32 393.40, 823.35 394.64, 820.41 396.37 C 817.48 398.09, 816.08 398.73, 814.39 399.77 C 812.71 400.82, 812.50 401.35, 811.97 401.57 C 811.43 401.79, 811.67 401.69, 811.73 400.87 C 811.78 400.04, 812.16 399.20, 812.23 397.45 C 812.31 395.71, 812.41 394.31, 812.12 392.14 C 811.84 389.97, 811.64 388.63, 810.82 386.60 C 810.00 384.56, 809.44 383.44, 808.02 381.94 C 806.59 380.45, 805.73 379.73, 803.69 379.11 C 801.66 378.48, 800.45 378.25, 797.83 378.81 C 795.21 379.37, 793.75 380.19, 790.59 381.91 C 787.42 383.63, 785.70 384.98, 782.00 387.41 C 778.30 389.84, 776.09 391.49, 772.10 394.04 C 768.11 396.59, 765.82 398.07, 762.06 400.15 C 758.29 402.23, 756.37 403.11, 753.26 404.43 C 750.16 405.75, 748.69 406.10, 746.55 406.75 C 744.40 407.40, 743.78 407.77, 742.54 407.69 C 741.29 407.61, 740.83 407.35, 740.32 406.35 C 739.81 405.34, 739.80 404.71, 739.99 402.67 C 740.17 400.63, 740.35 399.22, 741.24 396.16 C 742.13 393.11, 742.76 390.99, 744.45 387.39 C 746.14 383.78, 747.75 381.73, 749.70 378.13 C 751.64 374.54, 753.21 372.57, 754.16 369.42 C 755.11 366.27, 755.18 364.42, 754.44 362.41 C 753.70 360.39, 752.82 359.35, 750.48 359.33 C 748.13 359.31, 746.35 360.28, 742.73 362.31 C 739.10 364.35, 736.90 366.47, 732.36 369.52 C 727.81 372.57, 725.08 374.35, 719.99 377.56 C 714.90 380.77, 712.02 382.58, 706.91 385.56 C 701.79 388.54, 699.05 390.13, 694.40 392.46 C 689.75 394.79, 687.45 395.94, 683.64 397.23 C 679.83 398.53, 677.99 398.58, 675.34 398.94 C 672.69 399.30, 671.96 399.31, 670.38 399.01 C 668.80 398.71, 668.30 398.39, 667.44 397.44 C 666.59 396.49, 666.48 395.84, 666.10 394.26 C 665.73 392.67, 665.98 391.59, 665.58 389.52 C 665.18 387.45, 664.97 386.03, 664.09 383.90 C 663.21 381.76, 662.84 380.57, 661.17 378.86 C 659.51 377.14, 658.36 376.18, 655.76 375.32 C 653.16 374.45, 651.56 374.37, 648.16 374.52 C 644.76 374.68, 642.75 375.44, 638.76 376.09 C 634.76 376.74, 632.40 377.27, 628.19 377.77 C 623.99 378.28, 621.76 378.45, 617.72 378.61 C 613.67 378.78, 611.65 378.79, 607.96 378.60 C 604.26 378.41, 602.20 378.13, 599.25 377.67 C 596.30 377.21, 594.84 376.74, 593.21 376.31 C 591.57 375.87, 591.58 375.78, 591.09 375.50 C 590.60 375.23, 590.93 375.25, 590.75 374.93 C 590.57 374.61, 590.81 374.38, 590.19 373.91 C 589.57 373.44, 588.61 372.41, 587.66 372.57" style="stroke: black; fill: black;"/><path d="M 1150.37,315.65 C 1149.36 315.92, 1148.70 316.48, 1147.59 318.08 C 1146.49 319.68, 1146.05 320.63, 1144.84 323.66 C 1143.62 326.69, 1143.05 328.94, 1141.53 333.23 C 1140.00 337.53, 1139.02 340.14, 1137.21 345.11 C 1135.40 350.08, 1134.40 352.98, 1132.49 358.09 C 1130.58 363.20, 1129.49 366.03, 1127.65 370.66 C 1125.81 375.28, 1124.97 377.52, 1123.30 381.20 C 1121.62 384.89, 1120.49 386.59, 1119.26 389.10 C 1118.03 391.61, 1117.68 392.63, 1117.15 393.77 C 1116.62 394.90, 1116.71 395.06, 1116.61 394.77 C 1116.51 394.49, 1116.70 393.91, 1116.65 392.34 C 1116.60 390.77, 1116.47 389.75, 1116.36 386.93 C 1116.25 384.12, 1115.65 382.05, 1116.09 378.28 C 1116.53 374.50, 1116.90 372.54, 1118.56 368.06 C 1120.21 363.57, 1121.38 360.84, 1124.36 355.85 C 1127.33 350.86, 1129.36 348.11, 1133.44 343.11 C 1137.53 338.11, 1140.01 335.59, 1144.79 330.85 C 1149.56 326.11, 1152.12 323.51, 1157.34 319.41 C 1162.56 315.32, 1165.70 313.32, 1170.88 310.36 C 1176.05 307.41, 1178.76 306.20, 1183.23 304.64 C 1187.69 303.09, 1189.87 302.82, 1193.19 302.57 C 1196.51 302.32, 1198.09 302.81, 1199.82 303.40 C 1201.55 303.99, 1201.85 304.01, 1201.85 305.53 C 1201.84 307.06, 1201.37 308.20, 1199.80 311.03 C 1198.23 313.86, 1197.22 315.95, 1194.01 319.67 C 1190.81 323.38, 1188.26 325.56, 1183.78 329.59 C 1179.29 333.62, 1176.22 336.10, 1171.60 339.82 C 1166.99 343.53, 1164.39 345.28, 1160.69 348.16 C 1157.00 351.04, 1154.87 351.99, 1153.14 354.24 C 1151.41 356.49, 1151.27 357.72, 1152.05 359.41 C 1152.83 361.11, 1154.24 362.16, 1157.03 362.72 C 1159.82 363.27, 1161.96 362.39, 1165.99 362.20 C 1170.02 362.00, 1172.65 361.69, 1177.19 361.75 C 1181.73 361.80, 1184.48 361.95, 1188.67 362.47 C 1192.86 362.98, 1195.09 363.38, 1198.15 364.32 C 1201.21 365.25, 1202.47 365.91, 1203.97 367.14 C 1205.46 368.37, 1205.81 368.66, 1205.62 370.46 C 1205.42 372.26, 1205.01 373.31, 1202.98 376.14 C 1200.95 378.97, 1199.41 381.04, 1195.49 384.60 C 1191.57 388.16, 1188.82 390.27, 1183.38 393.92 C 1177.94 397.57, 1174.57 399.45, 1168.27 402.85 C 1161.98 406.25, 1158.16 408.04, 1151.90 410.92 C 1145.64 413.80, 1142.29 415.25, 1136.98 417.24 C 1131.66 419.23, 1129.21 419.90, 1125.34 420.87 C 1121.46 421.85, 1119.68 421.79, 1117.61 422.13 C 1115.54 422.46, 1115.21 422.74, 1114.99 422.54 C 1114.77 422.34, 1115.37 422.19, 1116.49 421.13 C 1117.61 420.06, 1118.27 419.20, 1120.58 417.21 C 1122.89 415.21, 1124.31 413.63, 1128.04 411.14 C 1131.78 408.65, 1134.34 407.22, 1139.27 404.77 C 1144.20 402.31, 1146.99 401.14, 1152.69 398.85 C 1158.38 396.56, 1161.45 395.49, 1167.76 393.33 C 1174.07 391.16, 1177.54 390.16, 1184.24 388.04 C 1190.93 385.92, 1194.53 384.85, 1201.25 382.74 C 1207.97 380.64, 1211.41 379.50, 1217.83 377.53 C 1224.24 375.55, 1227.56 374.59, 1233.32 372.89 C 1239.07 371.19, 1241.89 370.30, 1246.60 369.03 C 1251.32 367.76, 1253.58 367.53, 1256.90 366.55 C 1260.21 365.56, 1261.91 365.00, 1263.18 364.10 C 1264.44 363.20, 1264.25 362.13, 1263.23 362.04 C 1262.20 361.96, 1260.51 362.06, 1258.06 363.68 C 1255.60 365.31, 1254.11 367.11, 1250.95 370.17 C 1247.79 373.24, 1245.46 375.32, 1242.24 379.00 C 1239.03 382.68, 1237.23 384.84, 1234.87 388.57 C 1232.51 392.30, 1231.41 394.25, 1230.44 397.65 C 1229.48 401.05, 1229.35 402.85, 1230.04 405.57 C 1230.74 408.30, 1231.74 409.58, 1233.92 411.28 C 1236.10 412.99, 1237.71 413.84, 1240.93 414.10 C 1244.15 414.36, 1246.19 413.80, 1250.02 412.57 C 1253.85 411.35, 1256.09 410.21, 1260.09 407.97 C 1264.08 405.74, 1266.28 404.31, 1269.99 401.40 C 1273.69 398.49, 1275.69 396.81, 1278.61 393.42 C 1281.52 390.04, 1282.97 388.04, 1284.55 384.48 C 1286.13 380.92, 1286.66 378.98, 1286.50 375.60 C 1286.34 372.23, 1285.57 370.41, 1283.74 367.61 C 1281.90 364.82, 1280.04 363.47, 1277.31 361.65 C 1274.58 359.83, 1272.57 359.02, 1270.07 358.52 C 1267.57 358.02, 1266.08 358.41, 1264.79 359.14 C 1263.50 359.87, 1262.92 360.94, 1263.62 362.17 C 1264.32 363.40, 1265.47 364.84, 1268.29 365.27 C 1271.11 365.71, 1273.39 364.89, 1277.72 364.37 C 1282.05 363.84, 1284.66 363.36, 1289.93 362.67 C 1295.21 361.98, 1298.41 361.51, 1304.08 360.90 C 1309.75 360.29, 1312.94 359.83, 1318.27 359.62 C 1323.61 359.40, 1326.55 359.36, 1330.76 359.84 C 1334.96 360.32, 1337.05 361.10, 1339.29 362.01 C 1341.54 362.93, 1341.84 363.01, 1341.99 364.41 C 1342.13 365.81, 1341.50 366.60, 1340.01 369.02 C 1338.52 371.45, 1337.23 373.44, 1334.53 376.52 C 1331.83 379.61, 1329.79 381.53, 1326.52 384.45 C 1323.24 387.38, 1321.09 388.87, 1318.14 391.15 C 1315.20 393.43, 1313.42 394.30, 1311.79 395.86 C 1310.16 397.41, 1309.98 398.14, 1310.01 398.92 C 1310.05 399.71, 1310.60 400.06, 1311.97 399.80 C 1313.35 399.53, 1314.53 399.29, 1316.88 397.61 C 1319.23 395.92, 1320.52 394.02, 1323.72 391.36 C 1326.93 388.71, 1329.08 386.95, 1332.90 384.34 C 1336.73 381.72, 1338.97 380.35, 1342.87 378.29 C 1346.76 376.23, 1348.94 375.24, 1352.37 374.04 C 1355.79 372.84, 1357.43 372.61, 1360.01 372.28 C 1362.60 371.96, 1363.58 371.99, 1365.28 372.41 C 1366.98 372.83, 1367.60 373.20, 1368.50 374.39 C 1369.41 375.58, 1369.28 376.55, 1369.79 378.36 C 1370.30 380.18, 1370.66 381.34, 1371.04 383.47 C 1371.42 385.60, 1371.48 386.64, 1371.69 389.02 C 1371.90 391.40, 1371.65 392.93, 1372.09 395.37 C 1372.53 397.82, 1372.89 399.09, 1373.91 401.25 C 1374.93 403.40, 1375.42 404.73, 1377.21 406.16 C 1379.00 407.59, 1380.27 408.28, 1382.86 408.42 C 1385.46 408.55, 1386.94 408.19, 1390.19 406.84 C 1393.45 405.48, 1395.17 404.06, 1399.15 401.64 C 1403.14 399.23, 1405.60 397.76, 1410.14 394.78 C 1414.68 391.79, 1417.17 389.83, 1421.87 386.73 C 1426.57 383.62, 1429.22 381.90, 1433.64 379.26 C 1438.06 376.61, 1440.77 375.24, 1443.96 373.50 C 1447.16 371.76, 1448.43 371.03, 1449.62 370.55 C 1450.82 370.07, 1450.53 370.00, 1449.93 371.11 C 1449.33 372.21, 1448.06 373.23, 1446.61 376.07 C 1445.16 378.92, 1444.31 381.51, 1442.66 385.33 C 1441.00 389.16, 1439.69 391.30, 1438.35 395.19 C 1437.02 399.09, 1436.02 401.29, 1435.98 404.80 C 1435.93 408.30, 1436.51 410.08, 1438.13 412.72 C 1439.74 415.36, 1440.94 416.76, 1444.04 418.00 C 1447.14 419.23, 1449.36 419.31, 1453.63 418.92 C 1457.90 418.53, 1460.40 417.77, 1465.38 416.05 C 1470.36 414.33, 1473.06 412.94, 1478.53 410.33 C 1484.01 407.73, 1487.26 406.18, 1492.77 403.02 C 1498.29 399.86, 1501.06 397.90, 1506.11 394.54 C 1511.16 391.18, 1513.76 389.38, 1518.00 386.21 C 1522.25 383.03, 1524.38 381.63, 1527.35 378.68 C 1530.31 375.73, 1531.78 374.23, 1532.83 371.44 C 1533.88 368.64, 1533.73 366.80, 1532.60 364.70 C 1531.47 362.59, 1530.10 361.40, 1527.17 360.91 C 1524.25 360.41, 1522.01 360.76, 1517.98 362.20 C 1513.95 363.64, 1511.48 365.13, 1507.03 368.09 C 1502.58 371.05, 1499.97 373.24, 1495.73 377.00 C 1491.49 380.76, 1489.02 382.79, 1485.84 386.88 C 1482.65 390.96, 1481.44 393.45, 1479.81 397.44 C 1478.18 401.43, 1477.42 403.49, 1477.69 406.84 C 1477.95 410.19, 1478.82 411.94, 1481.15 414.18 C 1483.48 416.42, 1485.37 417.23, 1489.34 418.04 C 1493.31 418.85, 1495.85 418.70, 1501.01 418.25 C 1506.17 417.81, 1509.17 417.19, 1515.13 415.82 C 1521.09 414.45, 1524.40 413.47, 1530.81 411.40 C 1537.22 409.34, 1540.82 407.98, 1547.18 405.50 C 1553.53 403.02, 1556.77 401.60, 1562.57 399.02 C 1568.37 396.44, 1571.22 395.04, 1576.17 392.59 C 1581.12 390.14, 1583.44 388.75, 1587.31 386.78 C 1591.18 384.81, 1592.99 384.21, 1595.53 382.72 C 1598.06 381.23, 1598.91 380.46, 1599.99 379.34 C 1601.07 378.21, 1601.12 377.66, 1600.93 377.11 C 1600.73 376.55, 1599.98 376.28, 1598.99 376.57 C 1598.01 376.85, 1596.99 377.24, 1596.00 378.53 C 1595.02 379.82, 1594.75 380.99, 1594.07 383.04 C 1593.40 385.09, 1593.17 386.34, 1592.63 388.78 C 1592.08 391.22, 1591.79 392.73, 1591.34 395.25 C 1590.89 397.77, 1590.83 399.13, 1590.39 401.38 C 1589.94 403.62, 1589.84 404.63, 1589.11 406.49 C 1588.37 408.35, 1587.92 409.12, 1586.72 410.68 C 1585.52 412.24, 1584.78 413.02, 1583.09 414.30 C 1581.40 415.59, 1580.55 416.01, 1578.28 417.11 C 1576.00 418.21, 1574.54 418.78, 1571.72 419.80 C 1568.90 420.82, 1567.31 421.28, 1564.17 422.20 C 1561.03 423.12, 1559.11 423.71, 1556.04 424.39 C 1552.97 425.08, 1551.27 425.04, 1548.82 425.64 C 1546.37 426.23, 1545.39 426.74, 1543.80 427.36 C 1542.21 427.98, 1541.45 428.08, 1540.87 428.74 C 1540.29 429.41, 1540.24 430.04, 1540.92 430.67 C 1541.60 431.30, 1542.47 431.61, 1544.27 431.89 C 1546.07 432.16, 1547.29 432.33, 1549.93 432.04 C 1552.57 431.75, 1554.29 431.24, 1557.48 430.44 C 1560.66 429.64, 1562.60 428.96, 1565.85 428.03 C 1569.11 427.10, 1570.66 426.76, 1573.74 425.80 C 1576.81 424.84, 1578.55 424.50, 1581.22 423.21 C 1583.90 421.91, 1585.01 421.07, 1587.11 419.32 C 1589.21 417.57, 1590.20 416.54, 1591.74 414.45 C 1593.28 412.37, 1593.78 411.19, 1594.80 408.90 C 1595.82 406.60, 1596.12 405.42, 1596.84 403.00 C 1597.57 400.58, 1597.80 399.24, 1598.43 396.79 C 1599.06 394.34, 1599.30 392.96, 1599.99 390.73 C 1600.68 388.50, 1601.25 387.51, 1601.88 385.64 C 1602.51 383.76, 1602.99 382.93, 1603.14 381.36 C 1603.29 379.78, 1603.13 378.94, 1602.63 377.78 C 1602.12 376.62, 1601.61 375.96, 1600.63 375.56 C 1599.65 375.15, 1599.28 375.21, 1597.72 375.75 C 1596.16 376.29, 1595.32 376.75, 1592.85 378.27 C 1590.38 379.80, 1589.01 381.08, 1585.38 383.37 C 1581.74 385.65, 1579.48 387.10, 1574.67 389.69 C 1569.87 392.27, 1567.06 393.69, 1561.35 396.31 C 1555.63 398.93, 1552.41 400.35, 1546.12 402.79 C 1539.83 405.22, 1536.23 406.55, 1529.89 408.48 C 1523.55 410.41, 1520.24 411.29, 1514.41 412.42 C 1508.58 413.54, 1505.57 413.92, 1500.75 414.10 C 1495.93 414.28, 1493.58 414.02, 1490.32 413.33 C 1487.05 412.64, 1485.98 412.02, 1484.41 410.65 C 1482.84 409.29, 1482.61 408.84, 1482.48 406.51 C 1482.35 404.17, 1482.48 402.44, 1483.76 398.99 C 1485.05 395.53, 1485.99 393.04, 1488.89 389.23 C 1491.79 385.42, 1494.18 383.41, 1498.28 379.93 C 1502.37 376.45, 1505.10 374.36, 1509.38 371.82 C 1513.66 369.27, 1516.18 368.31, 1519.67 367.19 C 1523.16 366.07, 1524.84 366.41, 1526.83 366.23 C 1528.81 366.05, 1529.28 365.63, 1529.60 366.28 C 1529.93 366.92, 1529.49 367.56, 1528.43 369.47 C 1527.38 371.37, 1526.83 373.00, 1524.32 375.80 C 1521.81 378.59, 1519.87 380.23, 1515.87 383.45 C 1511.87 386.66, 1509.25 388.52, 1504.32 391.88 C 1499.38 395.23, 1496.63 397.17, 1491.19 400.23 C 1485.74 403.28, 1482.48 404.76, 1477.07 407.15 C 1471.66 409.53, 1468.90 410.77, 1464.14 412.15 C 1459.39 413.53, 1456.93 413.90, 1453.30 414.04 C 1449.67 414.19, 1448.17 413.65, 1445.98 412.88 C 1443.79 412.11, 1443.26 411.76, 1442.34 410.18 C 1441.42 408.61, 1441.15 407.65, 1441.36 405.02 C 1441.57 402.38, 1442.06 400.47, 1443.38 397.01 C 1444.70 393.56, 1446.19 391.47, 1447.97 387.75 C 1449.75 384.03, 1451.18 381.74, 1452.28 378.42 C 1453.38 375.10, 1454.03 373.40, 1453.47 371.15 C 1452.91 368.90, 1451.81 367.51, 1449.49 367.17 C 1447.17 366.83, 1445.44 367.68, 1441.86 369.45 C 1438.29 371.22, 1436.02 373.16, 1431.62 376.01 C 1427.22 378.85, 1424.59 380.60, 1419.87 383.67 C 1415.15 386.75, 1412.62 388.64, 1408.02 391.38 C 1403.41 394.13, 1400.85 395.43, 1396.83 397.40 C 1392.81 399.37, 1390.75 400.12, 1387.92 401.24 C 1385.09 402.35, 1384.16 402.72, 1382.69 402.98 C 1381.23 403.24, 1381.17 403.32, 1380.59 402.54 C 1380.02 401.76, 1380.17 400.72, 1379.81 399.09 C 1379.45 397.46, 1379.03 396.52, 1378.80 394.39 C 1378.57 392.25, 1378.88 390.87, 1378.66 388.40 C 1378.44 385.94, 1378.31 384.51, 1377.71 382.05 C 1377.11 379.59, 1376.73 378.34, 1375.66 376.09 C 1374.60 373.84, 1374.19 372.52, 1372.39 370.80 C 1370.59 369.07, 1369.28 368.24, 1366.66 367.46 C 1364.04 366.68, 1362.50 366.48, 1359.30 366.91 C 1356.11 367.35, 1354.40 368.15, 1350.70 369.64 C 1347.00 371.13, 1344.86 372.23, 1340.80 374.38 C 1336.73 376.53, 1334.47 377.93, 1330.38 380.39 C 1326.28 382.85, 1323.95 384.36, 1320.32 386.68 C 1316.69 388.99, 1314.48 389.85, 1312.23 391.95 C 1309.98 394.05, 1309.47 395.47, 1309.07 397.18 C 1308.66 398.88, 1309.08 399.85, 1310.23 400.49 C 1311.38 401.12, 1312.58 401.39, 1314.81 400.34 C 1317.05 399.29, 1318.40 397.69, 1321.40 395.24 C 1324.39 392.80, 1326.38 391.16, 1329.79 388.11 C 1333.19 385.06, 1335.42 383.30, 1338.42 379.98 C 1341.41 376.66, 1343.27 374.77, 1344.75 371.51 C 1346.24 368.24, 1346.53 366.39, 1345.85 363.64 C 1345.17 360.89, 1344.28 359.31, 1341.34 357.74 C 1338.40 356.17, 1335.79 356.13, 1331.14 355.78 C 1326.49 355.43, 1323.59 355.68, 1318.10 355.97 C 1312.62 356.27, 1309.43 356.75, 1303.72 357.25 C 1298.01 357.74, 1294.80 358.17, 1289.54 358.47 C 1284.28 358.76, 1281.61 358.81, 1277.43 358.73 C 1273.24 358.64, 1271.28 357.86, 1268.63 358.05 C 1265.97 358.23, 1265.05 358.75, 1264.15 359.64 C 1263.24 360.54, 1263.37 361.37, 1264.09 362.52 C 1264.82 363.67, 1265.82 364.38, 1267.78 365.37 C 1269.73 366.36, 1271.61 366.32, 1273.87 367.46 C 1276.13 368.60, 1277.59 369.36, 1279.07 371.06 C 1280.54 372.76, 1281.03 373.65, 1281.24 375.95 C 1281.44 378.25, 1281.32 379.65, 1280.11 382.57 C 1278.90 385.48, 1277.75 387.45, 1275.18 390.51 C 1272.61 393.57, 1270.73 395.23, 1267.26 397.87 C 1263.78 400.50, 1261.57 401.82, 1257.82 403.70 C 1254.07 405.57, 1251.81 406.40, 1248.49 407.23 C 1245.17 408.06, 1243.59 407.83, 1241.22 407.83 C 1238.85 407.84, 1237.97 407.89, 1236.65 407.24 C 1235.33 406.59, 1234.89 406.19, 1234.63 404.56 C 1234.37 402.94, 1234.51 401.80, 1235.34 399.10 C 1236.18 396.39, 1236.73 394.41, 1238.81 391.04 C 1240.90 387.66, 1242.58 385.55, 1245.78 382.23 C 1248.97 378.92, 1251.48 377.18, 1254.78 374.47 C 1258.09 371.75, 1260.25 370.88, 1262.31 368.66 C 1264.36 366.43, 1265.04 364.93, 1265.08 363.34 C 1265.11 361.74, 1264.39 360.93, 1262.48 360.67 C 1260.58 360.41, 1258.95 361.03, 1255.56 362.03 C 1252.18 363.02, 1250.19 364.04, 1245.56 365.63 C 1240.94 367.23, 1238.14 368.15, 1232.42 369.99 C 1226.71 371.84, 1223.39 372.83, 1217.00 374.86 C 1210.60 376.90, 1207.15 378.05, 1200.44 380.15 C 1193.72 382.26, 1190.13 383.32, 1183.41 385.41 C 1176.69 387.49, 1173.21 388.48, 1166.84 390.57 C 1160.46 392.66, 1157.36 393.69, 1151.53 395.84 C 1145.70 397.99, 1142.86 399.09, 1137.67 401.33 C 1132.49 403.56, 1129.83 404.77, 1125.60 407.02 C 1121.36 409.26, 1119.19 410.18, 1116.50 412.53 C 1113.82 414.89, 1112.90 416.47, 1112.18 418.79 C 1111.46 421.11, 1111.78 422.60, 1112.91 424.15 C 1114.04 425.70, 1115.13 426.46, 1117.83 426.55 C 1120.53 426.65, 1122.34 425.89, 1126.40 424.61 C 1130.46 423.34, 1132.79 422.39, 1138.13 420.17 C 1143.48 417.95, 1146.81 416.48, 1153.11 413.52 C 1159.41 410.57, 1163.22 408.77, 1169.63 405.40 C 1176.04 402.02, 1179.46 400.21, 1185.15 396.65 C 1190.83 393.09, 1193.72 391.14, 1198.06 387.60 C 1202.40 384.05, 1204.41 382.30, 1206.86 378.93 C 1209.30 375.56, 1210.20 373.79, 1210.28 370.73 C 1210.37 367.67, 1209.43 365.88, 1207.30 363.65 C 1205.17 361.42, 1203.25 360.75, 1199.64 359.59 C 1196.03 358.43, 1193.70 358.42, 1189.24 357.86 C 1184.79 357.30, 1182.06 357.07, 1177.37 356.78 C 1172.69 356.50, 1169.86 356.38, 1165.82 356.42 C 1161.78 356.47, 1159.62 356.62, 1157.20 357.02 C 1154.77 357.42, 1153.88 358.36, 1153.72 358.44 C 1153.55 358.52, 1154.45 358.84, 1156.35 357.41 C 1158.25 355.98, 1159.73 354.25, 1163.23 351.28 C 1166.73 348.32, 1169.25 346.37, 1173.85 342.58 C 1178.45 338.80, 1181.54 336.37, 1186.21 332.36 C 1190.88 328.35, 1193.57 326.34, 1197.18 322.55 C 1200.80 318.75, 1202.48 316.90, 1204.27 313.40 C 1206.05 309.89, 1206.65 307.82, 1206.11 305.01 C 1205.58 302.20, 1204.26 300.69, 1201.60 299.35 C 1198.94 298.02, 1196.73 297.91, 1192.81 298.31 C 1188.89 298.72, 1186.69 299.50, 1182.00 301.38 C 1177.30 303.26, 1174.62 304.56, 1169.33 307.71 C 1164.04 310.87, 1160.88 312.94, 1155.56 317.16 C 1150.25 321.38, 1147.67 324.01, 1142.77 328.81 C 1137.87 333.60, 1135.34 336.09, 1131.07 341.13 C 1126.80 346.18, 1124.69 348.96, 1121.43 354.04 C 1118.17 359.11, 1116.87 361.85, 1114.77 366.50 C 1112.68 371.15, 1112.03 373.17, 1110.95 377.29 C 1109.87 381.41, 1109.32 383.73, 1109.37 387.12 C 1109.42 390.51, 1110.00 392.14, 1111.22 394.23 C 1112.44 396.32, 1113.70 397.10, 1115.48 397.58 C 1117.25 398.05, 1118.38 397.81, 1120.10 396.61 C 1121.82 395.40, 1122.66 394.30, 1124.10 391.55 C 1125.53 388.79, 1125.86 386.74, 1127.28 382.83 C 1128.70 378.93, 1129.47 376.71, 1131.21 372.03 C 1132.95 367.34, 1134.03 364.50, 1135.99 359.42 C 1137.96 354.33, 1139.00 351.45, 1141.03 346.60 C 1143.06 341.75, 1144.19 339.25, 1146.16 335.16 C 1148.12 331.07, 1149.55 329.14, 1150.84 326.15 C 1152.13 323.16, 1152.25 322.08, 1152.61 320.20 C 1152.97 318.32, 1153.10 317.65, 1152.65 316.74 C 1152.21 315.83, 1151.38 315.38, 1150.37 315.65" style="stroke: black; fill: black;"/></svg>