<?xml version="1.0" encoding="UTF-8"?>
<!-- Generated by Pixelmator Pro 2.4.5 -->
<svg width="128" height="128" viewBox="0 0 128 128" xmlns="http://www.w3.org/2000/svg" xmlns:xlink="http://www.w3.org/1999/xlink">
    <path id="Path" fill="#ffffff" stroke="#ffffff" stroke-width="1.368984" stroke-linecap="round" stroke-linejoin="round" d="M 16.050886 50.228966 C 16.588831 50.252014 16.709852 49.758263 16.802086 49.633385 C 16.894302 49.508499 16.429363 49.621857 16.513901 49.604561 C 16.600351 49.58728 16.663738 49.404755 17.230511 49.546928 C 17.797262 49.687172 18.367855 49.773636 19.347698 50.311569 C 20.327518 50.849525 20.886593 51.350952 22.129616 52.238548 C 23.372639 53.12616 24.162254 53.752472 25.564747 54.74958 C 26.967226 55.748619 27.672314 56.415276 29.143978 57.227951 C 30.617533 58.042549 31.405247 58.542061 32.924915 58.818726 C 34.444603 59.095375 35.251503 59.145325 36.740444 58.609299 C 38.229393 58.071365 38.997879 57.55648 40.369633 56.136696 C 41.73946 54.718842 42.438786 53.639122 43.597282 51.510422 C 44.757698 49.381706 45.23991 47.875465 46.167866 45.493172 C 47.095806 43.112778 47.537693 41.618065 48.238949 39.606552 C 48.940174 37.593124 49.430084 36.521088 49.670246 35.431755 C 49.910397 34.342422 49.547283 33.931282 49.441628 34.157982 C 49.337872 34.384689 49.287926 34.872681 49.143833 36.567192 C 48.999741 38.263618 48.886395 39.666122 48.719254 42.634399 C 48.553997 45.602676 48.432987 47.692947 48.317703 51.410507 C 48.202427 55.128059 48.085239 57.443115 48.140961 61.222168 C 48.196659 64.999268 48.204357 67.154877 48.596287 70.301834 C 48.988197 73.446854 49.27446 75.043381 50.098671 76.951157 C 50.924801 78.85701 51.453136 79.542877 52.72113 79.836815 C 53.989128 80.130768 54.86137 79.813766 56.43676 78.418976 C 58.010235 77.022232 58.90744 75.662018 60.590427 72.860878 C 62.273415 70.057831 63.078415 68.103958 64.851685 64.405624 C 66.624977 60.70919 67.637451 58.384521 69.456841 54.373024 C 71.278152 50.361526 72.286781 47.944633 73.950577 44.346191 C 75.614342 40.747765 76.513474 38.807327 77.777634 36.382759 C 79.039871 33.958176 79.789146 33.072502 80.267525 32.22332 C 80.747826 31.374146 80.307861 31.287697 80.173378 32.138794 C 80.040817 32.991814 79.948593 34.023506 79.598946 36.478821 C 79.247345 38.934135 78.918823 40.855354 78.417404 44.419197 C 77.915962 47.983055 77.543236 50.301971 77.085976 54.300018 C 76.630661 58.298065 76.352081 60.643875 76.140747 64.4133 C 75.929436 68.182724 75.866013 70.244186 76.027382 73.147156 C 76.188789 76.052025 76.315567 77.295044 76.945724 78.931931 C 77.575905 80.56881 78.150337 81.172058 79.176262 81.335373 C 80.204124 81.498672 80.916901 81.039505 82.081131 79.750366 C 83.247322 78.461227 83.787178 77.316177 85.003319 74.887772 C 86.21946 72.459351 86.905327 70.705284 88.167572 67.606354 C 89.429787 64.507431 90.098389 62.567009 91.314522 59.393166 C 92.53064 56.219315 93.106995 54.432579 94.248222 51.737122 C 95.389412 49.043571 95.996506 47.719849 97.02243 45.91967 C 98.048378 44.121414 98.624748 43.489334 99.377861 42.743912 C 100.129051 41.996552 100.323112 42.084923 100.786118 42.19059 C 101.249123 42.296257 101.297142 42.440353 101.694847 43.274155 C 102.092537 44.107964 102.421059 44.805367 102.772644 46.357712 C 103.122307 47.910049 103.387428 48.951355 103.445084 51.037796 C 103.504616 53.12616 103.441238 54.440277 103.066589 56.793762 C 102.693871 59.14917 102.355736 60.51899 101.58149 62.809082 C 100.805336 65.097244 100.263535 66.326843 99.193428 68.242279 C 98.123283 70.155823 97.389389 71.110657 96.228981 72.378662 C 95.068573 73.64666 94.290482 74.034744 93.393257 74.582291 C 92.496071 75.129837 92.013847 74.839737 91.741013 75.114471 C 91.470123 75.391129 91.73333 75.840683 92.03112 75.959793 C 92.328918 76.080841 92.480675 75.932915 93.228043 75.711975 C 93.97731 75.49295 94.497948 75.083733 95.771721 74.857025 C 97.043571 74.630325 97.942719 74.459328 99.594963 74.578445 C 101.245277 74.699493 102.303871 74.862801 104.025291 75.458366 C 105.744774 76.055862 106.684242 76.520805 108.196228 77.558258 C 109.706322 78.597641 110.513222 79.287354 111.577583 80.651428 C 112.64386 82.013557 113.106842 82.849297 113.523773 84.374741 C 113.940674 85.900177 113.932983 86.77626 113.664017 88.278641 C 113.395027 89.781036 113.126083 90.60524 112.178909 91.886688 C 111.233665 93.166214 110.47673 93.775246 108.932045 94.682053 C 107.387405 95.586952 106.336502 95.951981 104.45755 96.413071 C 102.576683 96.874161 101.406662 97.02401 99.533485 96.985588 C 97.660301 96.949081 96.586311 96.712776 95.089714 96.2248 C 93.593079 95.736801 92.966766 95.146988 92.050339 94.547562 C 91.133919 93.948143 90.987923 93.633072 90.509521 93.225769 C 90.031143 92.816559 89.996574 92.543747 89.658417 92.505318 C 89.32029 92.464966 88.889931 92.645569 88.818848 93.031731 C 88.74778 93.417885 88.809242 93.877068 89.303017 94.436142 C 89.796745 94.995216 90.200195 95.235367 91.287621 95.827103 C 92.375038 96.420746 93.093559 96.943329 94.740036 97.394814 C 96.386528 97.848206 97.523872 98.073006 99.518112 98.086449 C 101.514244 98.097977 102.720772 97.94812 104.713066 97.456291 C 106.707298 96.966377 107.811996 96.609039 109.487297 95.629211 C 111.162575 94.649399 112.029053 93.990417 113.089569 92.559113 C 114.150085 91.12973 114.486298 90.176796 114.789833 88.480377 C 115.093414 86.783936 115.079941 85.777222 114.611191 84.07695 C 114.142395 82.374748 113.604462 81.458328 112.447899 79.973221 C 111.291313 78.486206 110.432549 77.773422 108.828331 76.647598 C 107.226021 75.521767 106.246193 75.033775 104.430664 74.34214 C 102.615097 73.652428 101.521935 73.452614 99.748657 73.193253 C 97.975372 72.933884 97.030144 72.95887 95.566177 73.041473 C 94.100288 73.1241 93.347153 73.187485 92.421143 73.608231 C 91.495087 74.028984 91.020576 74.516983 90.937958 75.147125 C 90.855339 75.775368 91.358704 76.630318 92.010002 76.755188 C 92.661285 76.878159 93.183861 76.50351 94.19249 75.769608 C 95.199219 75.035698 95.881241 74.501602 97.045494 73.08374 C 98.20784 71.667816 98.932152 70.686081 100.008018 68.688004 C 101.083885 66.689934 101.625687 65.443069 102.424904 63.095345 C 103.226059 60.74762 103.577621 59.364334 104.004158 56.951294 C 104.432587 54.538246 104.542091 53.201088 104.565132 51.028191 C 104.586273 48.855293 104.424881 47.781334 104.119423 46.086815 C 103.812035 44.390373 103.654472 43.602692 103.031998 42.551781 C 102.411469 41.498955 101.898476 40.943726 101.012802 40.826523 C 100.127129 40.707405 99.550758 41.026329 98.60553 41.96389 C 97.658379 42.899521 97.281792 43.612289 96.278931 45.512375 C 95.277992 47.41246 94.71505 48.738091 93.595001 51.464302 C 92.47493 54.192429 91.904327 55.977242 90.678581 59.147255 C 89.454773 62.319176 88.76506 64.25 87.468246 67.316254 C 86.173332 70.382523 85.431755 72.123138 84.200241 74.478561 C 82.970673 76.832047 82.294411 77.909843 81.318428 79.087547 C 80.34053 80.265244 80.035072 80.45546 79.316528 80.36515 C 78.597969 80.276779 78.248329 80.092339 77.725769 78.64183 C 77.201263 77.189392 76.897705 75.944443 76.697922 73.104881 C 76.500015 70.265335 76.532669 68.192322 76.730553 64.444038 C 76.928452 60.697662 77.205086 58.353783 77.691177 54.371101 C 78.179161 50.38842 78.605675 48.082962 79.164749 44.530632 C 79.721901 40.978302 80.094604 39.09359 80.482704 36.611382 C 80.872719 34.129166 81.281937 33.099396 81.105171 32.117653 C 80.930336 31.137833 80.392395 30.918823 79.602791 31.708443 C 78.815063 32.499977 78.394341 33.58931 77.162827 36.069603 C 75.931335 38.551804 75.084099 40.497993 73.44529 44.115639 C 71.80648 47.731377 70.797836 50.146347 68.972694 54.152092 C 67.145615 58.157814 66.112007 60.478653 64.311806 64.144318 C 62.509712 67.809998 61.652863 69.74852 59.966034 72.480476 C 58.279221 75.210541 57.285938 76.491974 55.875774 77.798416 C 54.463665 79.104828 53.923817 79.241249 52.911335 79.012619 C 51.896923 78.782066 51.539585 78.409348 50.807613 76.649521 C 50.075619 74.889679 49.662548 73.304672 49.255253 70.2173 C 48.846027 67.129898 48.813389 64.968529 48.763432 61.212555 C 48.715397 57.456573 48.844105 55.139587 49.009357 51.437416 C 49.176502 47.733299 49.355156 45.654549 49.59724 42.695877 C 49.841232 39.73719 50.13134 38.401955 50.225475 36.642128 C 50.317692 34.882286 50.402241 34.225235 50.067921 33.898621 C 49.733635 33.573944 49.116928 33.94088 48.552109 35.014854 C 47.987259 36.090729 47.896965 37.245384 47.245667 39.27227 C 46.592445 41.301071 46.190926 42.801544 45.291779 45.155029 C 44.390739 47.508522 43.883545 48.995537 42.746166 51.041641 C 41.608833 53.08773 40.882603 54.098289 39.604988 55.389336 C 38.325451 56.680405 37.637661 57.055038 36.350456 57.494995 C 35.06131 57.934952 34.479195 57.867722 33.166988 57.587212 C 31.85289 57.308647 31.142046 56.885979 29.783735 56.098274 C 28.425447 55.310577 27.712662 54.670807 26.375502 53.650642 C 25.038342 52.628563 24.283287 51.99456 23.099817 50.991684 C 21.918282 49.990738 21.466785 49.433571 20.463913 48.643959 C 19.461042 47.85434 18.982662 47.404762 18.083525 47.045494 C 17.182487 46.688156 16.740601 46.697754 15.966337 46.851471 C 15.192106 47.005157 14.583076 47.279892 14.212264 47.81398 C 13.843406 48.348091 13.749269 49.035889 14.118128 49.518112 C 14.485085 50.002258 15.514863 50.205902 16.050886 50.228966"/>
</svg>
