<svg xmlns="http://www.w3.org/2000/svg" id="canvas" viewBox="274.153 355.300 1134.333 100.970"><path d="M 287.68,416.13 C 288.40 416.02, 289.11 415.65, 290.56 414.70 C 292.01 413.75, 292.96 413.14, 294.91 411.38 C 296.87 409.63, 298.04 408.36, 300.34 405.94 C 302.63 403.52, 303.91 402.11, 306.39 399.28 C 308.87 396.46, 310.25 394.88, 312.75 391.80 C 315.24 388.73, 316.58 387.03, 318.84 383.92 C 321.11 380.81, 322.27 379.15, 324.09 376.25 C 325.91 373.34, 326.84 371.88, 327.96 369.38 C 329.08 366.89, 329.46 365.65, 329.71 363.75 C 329.95 361.84, 329.84 360.95, 329.19 359.86 C 328.54 358.77, 327.87 358.31, 326.46 358.30 C 325.04 358.29, 324.01 358.48, 322.11 359.80 C 320.21 361.12, 319.17 362.21, 316.96 364.92 C 314.76 367.63, 313.60 369.44, 311.09 373.33 C 308.59 377.21, 307.15 379.56, 304.45 384.33 C 301.76 389.10, 300.27 391.89, 297.62 397.17 C 294.97 402.46, 293.60 405.44, 291.20 410.77 C 288.80 416.10, 287.62 418.95, 285.62 423.83 C 283.63 428.71, 282.72 431.17, 281.21 435.18 C 279.70 439.18, 278.89 441.02, 278.08 443.87 C 277.27 446.73, 277.09 447.91, 277.17 449.47 C 277.25 451.03, 277.59 451.46, 278.49 451.68 C 279.39 451.89, 280.17 451.60, 281.67 450.55 C 283.16 449.49, 284.14 448.44, 285.95 446.39 C 287.76 444.34, 288.69 442.72, 290.72 440.32 C 292.75 437.91, 294.00 436.51, 296.11 434.36 C 298.22 432.20, 299.45 431.13, 301.28 429.56 C 303.12 427.99, 304.06 427.26, 305.28 426.49 C 306.50 425.73, 306.91 425.53, 307.40 425.73 C 307.88 425.93, 307.77 426.31, 307.70 427.49 C 307.63 428.66, 307.33 429.64, 307.02 431.59 C 306.72 433.54, 306.40 434.91, 306.16 437.24 C 305.92 439.58, 305.71 441.01, 305.82 443.26 C 305.93 445.50, 306.02 446.72, 306.73 448.45 C 307.44 450.18, 307.96 450.98, 309.37 451.92 C 310.78 452.87, 311.73 453.19, 313.79 453.19 C 315.86 453.19, 317.16 452.97, 319.68 451.93 C 322.20 450.90, 323.62 449.95, 326.39 448.02 C 329.15 446.10, 330.71 444.78, 333.53 442.30 C 336.34 439.82, 337.90 438.28, 340.44 435.60 C 342.99 432.92, 344.34 431.43, 346.25 428.90 C 348.17 426.36, 349.05 425.04, 350.00 422.93 C 350.95 420.81, 351.17 419.78, 351.02 418.30 C 350.87 416.82, 350.40 416.13, 349.25 415.53 C 348.10 414.93, 347.08 414.80, 345.27 415.31 C 343.46 415.83, 342.23 416.48, 340.21 418.12 C 338.18 419.77, 337.05 421.08, 335.14 423.55 C 333.24 426.02, 332.21 427.62, 330.68 430.45 C 329.15 433.28, 328.29 434.91, 327.49 437.70 C 326.70 440.49, 326.49 442.03, 326.70 444.41 C 326.92 446.79, 327.32 447.97, 328.57 449.62 C 329.81 451.27, 330.76 452.00, 332.93 452.66 C 335.10 453.32, 336.55 453.50, 339.43 452.92 C 342.31 452.34, 343.95 451.56, 347.34 449.77 C 350.72 447.97, 352.58 446.76, 356.37 443.94 C 360.16 441.12, 362.24 439.35, 366.27 435.66 C 370.31 431.97, 372.48 429.79, 376.54 425.50 C 380.59 421.21, 382.76 418.76, 386.57 414.20 C 390.38 409.65, 392.29 407.16, 395.59 402.73 C 398.89 398.30, 400.50 396.01, 403.05 392.07 C 405.59 388.13, 406.74 386.24, 408.32 383.03 C 409.90 379.82, 410.49 378.37, 410.94 376.02 C 411.40 373.66, 411.30 372.63, 410.61 371.25 C 409.91 369.87, 409.18 369.29, 407.49 369.12 C 405.80 368.95, 404.53 369.07, 402.15 370.42 C 399.77 371.76, 398.45 373.01, 395.57 375.86 C 392.69 378.72, 391.00 380.62, 387.75 384.68 C 384.49 388.75, 382.57 391.32, 379.30 396.20 C 376.03 401.08, 374.22 403.96, 371.41 409.09 C 368.61 414.21, 367.25 417.03, 365.29 421.83 C 363.33 426.62, 362.51 429.07, 361.61 433.07 C 360.70 437.06, 360.40 438.92, 360.77 441.81 C 361.15 444.70, 361.83 445.95, 363.48 447.53 C 365.13 449.12, 366.39 449.66, 369.01 449.73 C 371.63 449.81, 373.28 449.35, 376.58 447.90 C 379.89 446.45, 381.73 445.22, 385.55 442.49 C 389.36 439.76, 391.52 437.96, 395.67 434.25 C 399.81 430.54, 402.09 428.28, 406.29 423.93 C 410.50 419.58, 412.73 417.07, 416.69 412.50 C 420.64 407.93, 422.69 405.44, 426.05 401.08 C 429.41 396.71, 431.00 394.46, 433.49 390.68 C 435.99 386.90, 437.12 385.12, 438.51 382.16 C 439.91 379.19, 440.34 377.88, 440.48 375.84 C 440.62 373.80, 440.29 372.92, 439.23 371.96 C 438.16 371.01, 437.18 370.68, 435.18 371.07 C 433.18 371.46, 431.83 372.01, 429.23 373.91 C 426.62 375.82, 425.19 377.33, 422.15 380.60 C 419.10 383.88, 417.28 386.00, 413.99 390.29 C 410.70 394.57, 408.81 397.20, 405.68 402.04 C 402.56 406.88, 400.89 409.63, 398.37 414.49 C 395.84 419.35, 394.64 421.95, 393.05 426.33 C 391.46 430.72, 390.83 432.88, 390.43 436.43 C 390.03 439.99, 390.13 441.62, 391.05 444.11 C 391.98 446.60, 392.92 447.62, 395.06 448.87 C 397.19 450.13, 398.70 450.47, 401.73 450.39 C 404.76 450.32, 406.59 449.71, 410.21 448.48 C 413.82 447.25, 415.88 446.21, 419.82 444.25 C 423.76 442.28, 425.98 440.94, 429.90 438.65 C 433.83 436.35, 435.97 434.96, 439.45 432.76 C 442.93 430.57, 444.74 429.48, 447.32 427.68 C 449.91 425.89, 451.03 425.07, 452.38 423.78 C 453.74 422.48, 454.03 421.93, 454.11 421.21 C 454.18 420.49, 453.73 420.21, 452.78 420.18 C 451.83 420.16, 450.89 420.31, 449.35 421.10 C 447.80 421.89, 446.77 422.62, 445.07 424.15 C 443.36 425.68, 442.39 426.78, 440.82 428.73 C 439.24 430.68, 438.33 431.84, 437.17 433.92 C 436.01 435.99, 435.45 437.16, 435.03 439.10 C 434.61 441.04, 434.58 442.07, 435.07 443.61 C 435.55 445.15, 436.10 445.90, 437.45 446.81 C 438.79 447.72, 439.80 448.05, 441.80 448.17 C 443.79 448.29, 445.08 448.10, 447.44 447.42 C 449.79 446.73, 451.17 446.10, 453.57 444.73 C 455.98 443.36, 457.32 442.40, 459.46 440.58 C 461.60 438.75, 462.72 437.64, 464.30 435.58 C 465.87 433.52, 466.58 432.35, 467.34 430.27 C 468.11 428.20, 468.29 427.06, 468.12 425.18 C 467.95 423.31, 467.53 422.35, 466.50 420.89 C 465.46 419.43, 464.57 418.76, 462.96 417.89 C 461.36 417.01, 460.25 416.74, 458.48 416.53 C 456.70 416.31, 455.60 416.40, 454.08 416.81 C 452.56 417.21, 451.72 417.66, 450.88 418.55 C 450.05 419.43, 449.73 420.18, 449.89 421.24 C 450.04 422.29, 450.42 423.01, 451.66 423.82 C 452.89 424.64, 453.88 424.98, 456.05 425.32 C 458.23 425.65, 459.66 425.66, 462.53 425.49 C 465.40 425.32, 467.12 424.93, 470.40 424.46 C 473.67 423.99, 475.56 423.67, 478.92 423.13 C 482.28 422.60, 484.10 422.32, 487.19 421.79 C 490.29 421.26, 491.95 421.00, 494.38 420.48 C 496.82 419.95, 498.38 419.64, 499.35 419.17 C 500.31 418.70, 500.28 418.34, 499.22 418.12 C 498.15 417.90, 496.52 417.86, 494.03 418.06 C 491.54 418.26, 489.85 418.62, 486.75 419.11 C 483.65 419.61, 481.86 420.03, 478.52 420.53 C 475.18 421.03, 473.29 421.32, 470.06 421.61 C 466.83 421.91, 465.11 421.94, 462.38 422.02 C 459.65 422.09, 458.34 422.09, 456.40 422.00 C 454.47 421.90, 453.71 421.74, 452.71 421.53 C 451.71 421.32, 451.52 421.19, 451.42 420.94 C 451.33 420.70, 451.59 420.56, 452.24 420.30 C 452.88 420.04, 453.49 419.80, 454.67 419.65 C 455.85 419.49, 456.72 419.37, 458.13 419.53 C 459.54 419.68, 460.43 419.83, 461.71 420.40 C 462.99 420.97, 463.72 421.37, 464.53 422.36 C 465.34 423.36, 465.68 423.98, 465.76 425.36 C 465.84 426.75, 465.66 427.62, 464.91 429.29 C 464.16 430.97, 463.51 431.98, 462.01 433.75 C 460.52 435.52, 459.45 436.53, 457.44 438.15 C 455.43 439.78, 454.16 440.64, 451.96 441.88 C 449.76 443.11, 448.50 443.64, 446.47 444.32 C 444.43 445.01, 443.38 445.20, 441.80 445.31 C 440.23 445.43, 439.53 445.34, 438.60 444.89 C 437.66 444.44, 437.35 444.07, 437.14 443.05 C 436.94 442.04, 437.04 441.31, 437.58 439.80 C 438.11 438.29, 438.65 437.28, 439.81 435.51 C 440.98 433.74, 441.84 432.65, 443.40 430.94 C 444.96 429.23, 446.02 428.38, 447.59 426.95 C 449.16 425.53, 450.09 424.91, 451.24 423.83 C 452.39 422.75, 452.92 422.18, 453.36 421.57 C 453.81 420.96, 453.91 420.67, 453.44 420.77 C 452.98 420.88, 452.54 421.10, 451.03 422.08 C 449.53 423.06, 448.46 423.88, 445.92 425.67 C 443.38 427.46, 441.73 428.77, 438.33 431.02 C 434.92 433.27, 432.79 434.66, 428.90 436.93 C 425.01 439.19, 422.78 440.49, 418.89 442.34 C 415.00 444.19, 412.91 445.11, 409.46 446.19 C 406.01 447.26, 404.30 447.55, 401.62 447.72 C 398.94 447.88, 397.80 447.88, 396.08 447.02 C 394.35 446.16, 393.74 445.48, 393.01 443.40 C 392.28 441.33, 392.09 439.94, 392.42 436.65 C 392.75 433.35, 393.20 431.19, 394.66 426.90 C 396.13 422.62, 397.29 420.01, 399.76 415.21 C 402.23 410.41, 403.89 407.67, 407.01 402.90 C 410.14 398.14, 412.04 395.53, 415.38 391.38 C 418.73 387.23, 420.61 385.17, 423.72 382.14 C 426.83 379.11, 428.51 378.02, 430.93 376.25 C 433.36 374.47, 434.35 373.92, 435.83 373.26 C 437.32 372.61, 437.79 372.51, 438.34 372.97 C 438.89 373.44, 438.96 373.93, 438.60 375.59 C 438.25 377.24, 437.87 378.41, 436.56 381.25 C 435.25 384.08, 434.39 385.97, 432.05 389.76 C 429.71 393.54, 428.15 395.81, 424.86 400.17 C 421.57 404.53, 419.53 407.02, 415.60 411.57 C 411.68 416.11, 409.44 418.61, 405.23 422.90 C 401.02 427.18, 398.73 429.41, 394.57 433.00 C 390.41 436.59, 388.20 438.31, 384.41 440.84 C 380.62 443.37, 378.70 444.35, 375.61 445.66 C 372.53 446.97, 371.16 447.29, 369.00 447.39 C 366.83 447.50, 365.98 447.36, 364.78 446.19 C 363.57 445.02, 363.23 444.10, 362.95 441.55 C 362.68 439.00, 362.64 437.28, 363.40 433.45 C 364.17 429.62, 364.90 427.15, 366.76 422.42 C 368.63 417.69, 369.97 414.88, 372.74 409.81 C 375.51 404.75, 377.33 401.88, 380.62 397.09 C 383.91 392.31, 385.87 389.77, 389.19 385.87 C 392.51 381.98, 394.33 380.21, 397.23 377.62 C 400.12 375.03, 401.61 374.26, 403.67 372.93 C 405.73 371.60, 406.42 371.18, 407.52 370.96 C 408.63 370.74, 408.95 370.91, 409.21 371.83 C 409.47 372.75, 409.38 373.47, 408.83 375.54 C 408.28 377.60, 407.92 379.03, 406.48 382.15 C 405.04 385.28, 404.05 387.24, 401.63 391.18 C 399.21 395.11, 397.62 397.42, 394.39 401.84 C 391.15 406.26, 389.24 408.75, 385.46 413.27 C 381.67 417.80, 379.51 420.24, 375.45 424.47 C 371.39 428.70, 369.21 430.85, 365.17 434.43 C 361.12 438.01, 359.01 439.72, 355.23 442.36 C 351.45 445.00, 349.54 446.08, 346.26 447.62 C 342.98 449.16, 341.38 449.51, 338.84 450.05 C 336.29 450.59, 335.24 450.67, 333.54 450.32 C 331.84 449.97, 331.20 449.52, 330.33 448.31 C 329.46 447.11, 329.21 446.23, 329.20 444.28 C 329.19 442.33, 329.49 441.04, 330.30 438.56 C 331.11 436.08, 331.78 434.47, 333.25 431.88 C 334.73 429.28, 335.84 427.79, 337.67 425.57 C 339.51 423.34, 340.71 422.28, 342.43 420.73 C 344.16 419.17, 345.05 418.54, 346.30 417.79 C 347.55 417.04, 348.08 416.86, 348.68 416.96 C 349.27 417.06, 349.46 417.31, 349.28 418.28 C 349.10 419.25, 348.80 419.99, 347.77 421.80 C 346.74 423.61, 345.97 424.89, 344.15 427.31 C 342.33 429.74, 341.13 431.32, 338.68 433.93 C 336.22 436.55, 334.66 438.06, 331.89 440.40 C 329.11 442.75, 327.49 443.93, 324.80 445.65 C 322.11 447.38, 320.68 448.04, 318.44 449.03 C 316.21 450.02, 315.22 450.38, 313.63 450.60 C 312.05 450.83, 311.45 450.74, 310.54 450.16 C 309.63 449.57, 309.40 449.05, 309.08 447.68 C 308.76 446.30, 308.82 445.27, 308.94 443.26 C 309.07 441.26, 309.41 439.93, 309.71 437.66 C 310.01 435.38, 310.37 434.00, 310.43 431.90 C 310.49 429.79, 310.48 428.62, 309.99 427.13 C 309.50 425.64, 309.11 424.96, 307.98 424.43 C 306.86 423.90, 306.05 423.90, 304.35 424.48 C 302.65 425.05, 301.55 425.76, 299.48 427.32 C 297.42 428.88, 296.26 430.09, 294.03 432.27 C 291.80 434.45, 290.52 435.86, 288.34 438.21 C 286.16 440.55, 284.82 441.88, 283.11 443.98 C 281.41 446.09, 280.73 447.33, 279.81 448.71 C 278.89 450.09, 278.72 450.70, 278.51 450.89 C 278.31 451.07, 278.43 450.90, 278.79 449.63 C 279.16 448.36, 279.52 447.30, 280.34 444.53 C 281.17 441.76, 281.56 439.80, 282.91 435.78 C 284.25 431.75, 285.14 429.29, 287.06 424.41 C 288.99 419.53, 290.16 416.68, 292.54 411.37 C 294.92 406.06, 296.30 403.10, 298.97 397.86 C 301.65 392.62, 303.16 389.86, 305.92 385.18 C 308.69 380.51, 310.19 378.19, 312.82 374.50 C 315.45 370.81, 316.88 369.21, 319.09 366.74 C 321.31 364.26, 322.38 363.45, 323.91 362.12 C 325.43 360.79, 325.93 360.42, 326.71 360.09 C 327.50 359.77, 327.67 359.85, 327.82 360.49 C 327.98 361.13, 327.94 361.74, 327.48 363.29 C 327.02 364.85, 326.61 365.93, 325.52 368.27 C 324.44 370.62, 323.75 372.13, 322.05 375.00 C 320.36 377.87, 319.25 379.54, 317.05 382.62 C 314.84 385.70, 313.52 387.39, 311.03 390.39 C 308.54 393.40, 307.14 394.95, 304.60 397.65 C 302.05 400.35, 300.68 401.63, 298.29 403.89 C 295.90 406.14, 294.53 407.16, 292.65 408.93 C 290.78 410.71, 290.04 411.51, 288.91 412.77 C 287.77 414.02, 287.20 414.55, 286.96 415.23 C 286.72 415.90, 286.96 416.23, 287.68 416.13" style="stroke: black; fill: black;"/><path d="M 580.03,420.96 C 579.91 420.44, 579.62 419.96, 578.81 419.38 C 577.99 418.80, 577.38 418.39, 575.97 418.06 C 574.57 417.73, 573.67 417.54, 571.77 417.73 C 569.88 417.92, 568.81 418.14, 566.52 419.01 C 564.23 419.88, 562.88 420.51, 560.31 422.08 C 557.73 423.65, 556.25 424.78, 553.64 426.89 C 551.04 428.99, 549.52 430.31, 547.27 432.61 C 545.02 434.92, 543.83 436.23, 542.39 438.40 C 540.95 440.57, 540.42 441.72, 540.09 443.44 C 539.76 445.17, 539.93 446.01, 540.72 447.01 C 541.51 448.01, 542.34 448.36, 544.06 448.44 C 545.78 448.53, 546.98 448.32, 549.33 447.43 C 551.68 446.54, 553.07 445.68, 555.81 443.97 C 558.54 442.27, 560.11 441.07, 563.01 438.90 C 565.91 436.74, 567.56 435.39, 570.33 433.13 C 573.10 430.88, 574.69 429.65, 576.86 427.62 C 579.04 425.60, 580.13 424.42, 581.21 423.00 C 582.30 421.58, 582.46 420.89, 582.29 420.52 C 582.12 420.16, 581.45 420.31, 580.36 421.19 C 579.26 422.08, 578.25 423.00, 576.81 424.95 C 575.38 426.89, 574.40 428.46, 573.17 430.93 C 571.94 433.40, 571.28 434.93, 570.65 437.28 C 570.03 439.62, 569.79 440.86, 570.05 442.65 C 570.32 444.44, 570.70 445.31, 571.97 446.21 C 573.24 447.12, 574.26 447.44, 576.40 447.18 C 578.54 446.92, 579.90 446.45, 582.69 444.93 C 585.47 443.40, 587.01 442.16, 590.31 439.56 C 593.62 436.96, 595.51 435.30, 599.22 431.92 C 602.93 428.54, 604.97 426.51, 608.85 422.65 C 612.74 418.78, 614.83 416.59, 618.63 412.59 C 622.44 408.59, 624.42 406.40, 627.87 402.65 C 631.31 398.90, 633.02 396.96, 635.85 393.85 C 638.68 390.75, 640.30 389.29, 642.01 387.14 C 643.72 385.00, 644.16 383.92, 644.41 383.12 C 644.65 382.33, 644.20 382.26, 643.23 383.17 C 642.26 384.07, 641.29 385.06, 639.56 387.66 C 637.83 390.26, 636.79 392.37, 634.57 396.17 C 632.35 399.97, 630.94 402.39, 628.46 406.65 C 625.97 410.91, 624.55 413.29, 622.14 417.46 C 619.74 421.63, 618.48 423.85, 616.44 427.51 C 614.40 431.17, 613.35 432.95, 611.94 435.78 C 610.52 438.60, 610.01 439.91, 609.38 441.64 C 608.74 443.36, 608.70 443.89, 608.78 444.41 C 608.86 444.94, 609.43 444.85, 609.76 444.25 C 610.09 443.64, 610.69 442.02, 610.42 441.39 C 610.15 440.76, 608.84 440.56, 608.40 441.10 C 607.96 441.64, 608.00 443.36, 608.21 444.11 C 608.43 444.87, 608.84 445.18, 609.46 444.86 C 610.09 444.55, 610.42 444.16, 611.34 442.55 C 612.26 440.94, 612.70 439.64, 614.06 436.82 C 615.42 434.00, 616.22 432.12, 618.15 428.43 C 620.08 424.74, 621.32 422.53, 623.72 418.37 C 626.11 414.21, 627.54 411.84, 630.13 407.66 C 632.71 403.47, 634.26 401.14, 636.66 397.46 C 639.06 393.79, 640.55 391.97, 642.14 389.27 C 643.72 386.56, 644.25 385.30, 644.58 383.94 C 644.91 382.58, 644.67 382.17, 643.78 382.49 C 642.89 382.81, 642.00 383.51, 640.13 385.53 C 638.26 387.55, 637.12 389.40, 634.43 392.60 C 631.73 395.81, 630.04 397.77, 626.66 401.55 C 623.27 405.33, 621.29 407.53, 617.50 411.51 C 613.71 415.50, 611.61 417.68, 607.71 421.48 C 603.80 425.29, 601.74 427.29, 597.99 430.53 C 594.24 433.78, 592.29 435.37, 588.95 437.72 C 585.60 440.08, 583.88 440.92, 581.27 442.31 C 578.66 443.70, 577.57 444.17, 575.91 444.65 C 574.24 445.14, 573.67 445.17, 572.94 444.75 C 572.21 444.33, 572.12 443.85, 572.25 442.55 C 572.38 441.26, 572.71 440.25, 573.58 438.29 C 574.44 436.32, 575.29 435.00, 576.57 432.74 C 577.85 430.47, 578.88 429.03, 579.99 426.97 C 581.11 424.90, 581.70 423.76, 582.14 422.42 C 582.57 421.08, 582.67 420.49, 582.17 420.28 C 581.67 420.07, 581.09 420.34, 579.64 421.39 C 578.19 422.43, 577.12 423.55, 574.93 425.51 C 572.75 427.47, 571.41 428.93, 568.71 431.18 C 566.02 433.43, 564.37 434.75, 561.47 436.78 C 558.58 438.81, 556.91 439.80, 554.23 441.33 C 551.55 442.85, 550.14 443.45, 548.06 444.40 C 545.99 445.36, 545.10 445.75, 543.85 446.10 C 542.61 446.44, 542.17 446.52, 541.82 446.12 C 541.47 445.71, 541.51 445.28, 542.09 444.06 C 542.66 442.84, 543.25 441.93, 544.69 440.03 C 546.13 438.14, 547.15 436.78, 549.30 434.60 C 551.44 432.41, 552.88 431.08, 555.41 429.12 C 557.94 427.16, 559.48 426.23, 561.93 424.80 C 564.38 423.38, 565.63 422.78, 567.66 421.99 C 569.70 421.20, 570.57 421.01, 572.11 420.84 C 573.65 420.66, 574.24 420.93, 575.36 421.11 C 576.49 421.28, 576.91 421.55, 577.71 421.72 C 578.52 421.89, 578.93 422.12, 579.39 421.97 C 579.86 421.81, 580.15 421.47, 580.03 420.96" style="stroke: black; fill: black;"/><path d="M 602.24,428.46 C 602.53 428.81, 602.74 429.02, 603.75 429.24 C 604.77 429.45, 605.47 429.54, 607.32 429.55 C 609.17 429.57, 610.40 429.55, 613.01 429.30 C 615.63 429.04, 617.27 428.72, 620.38 428.28 C 623.49 427.83, 625.28 427.52, 628.56 427.06 C 631.84 426.59, 633.58 426.34, 636.78 425.93 C 639.98 425.53, 641.66 425.41, 644.55 425.03 C 647.45 424.64, 648.97 424.43, 651.27 424.00 C 653.57 423.57, 655.12 423.31, 656.06 422.87 C 657.00 422.43, 656.97 422.05, 655.96 421.79 C 654.94 421.54, 653.35 421.50, 651.00 421.59 C 648.65 421.68, 647.11 421.90, 644.20 422.25 C 641.29 422.60, 639.64 422.91, 636.44 423.34 C 633.24 423.77, 631.50 424.00, 628.22 424.38 C 624.93 424.76, 623.13 424.98, 620.03 425.25 C 616.93 425.52, 615.29 425.55, 612.71 425.73 C 610.13 425.92, 608.92 425.94, 607.12 426.17 C 605.32 426.40, 604.67 426.61, 603.70 426.87 C 602.74 427.13, 602.59 427.16, 602.30 427.48 C 602.00 427.79, 601.95 428.11, 602.24 428.46" style="stroke: black; fill: black;"/><path d="M 713.98,419.51 C 714.54 419.47, 715.21 418.99, 715.52 418.51 C 715.83 418.02, 715.65 417.33, 715.51 417.09 C 715.37 416.84, 715.28 416.60, 714.81 417.28 C 714.34 417.96, 714.03 418.72, 713.16 420.47 C 712.30 422.22, 711.67 423.57, 710.48 426.02 C 709.30 428.47, 708.57 430.11, 707.25 432.72 C 705.93 435.34, 704.96 436.79, 703.90 439.09 C 702.83 441.40, 702.24 442.60, 701.94 444.25 C 701.63 445.90, 701.71 446.65, 702.37 447.34 C 703.02 448.02, 703.68 448.14, 705.20 447.69 C 706.72 447.25, 707.82 446.68, 709.97 445.10 C 712.12 443.53, 713.33 442.13, 715.95 439.82 C 718.57 437.52, 720.18 436.01, 723.09 433.58 C 726.00 431.16, 727.71 429.77, 730.50 427.70 C 733.30 425.64, 734.87 424.71, 737.08 423.26 C 739.29 421.81, 740.26 421.15, 741.55 420.45 C 742.85 419.74, 743.21 419.59, 743.53 419.74 C 743.86 419.89, 743.63 420.20, 743.19 421.19 C 742.76 422.17, 742.20 422.99, 741.34 424.66 C 740.48 426.33, 739.86 427.54, 738.88 429.53 C 737.90 431.53, 737.21 432.75, 736.43 434.65 C 735.66 436.54, 735.16 437.56, 735.01 439.00 C 734.87 440.43, 734.99 441.15, 735.71 441.82 C 736.43 442.49, 737.07 442.64, 738.61 442.34 C 740.15 442.04, 741.23 441.60, 743.41 440.33 C 745.58 439.06, 746.86 437.90, 749.47 435.99 C 752.08 434.08, 753.62 432.77, 756.44 430.79 C 759.25 428.80, 760.92 427.71, 763.54 426.06 C 766.16 424.42, 767.65 423.63, 769.54 422.57 C 771.43 421.50, 772.18 421.03, 773.01 420.73 C 773.84 420.43, 773.85 420.50, 773.68 421.07 C 773.50 421.64, 772.96 422.20, 772.14 423.57 C 771.32 424.94, 770.56 426.00, 769.59 427.93 C 768.63 429.85, 767.99 431.16, 767.32 433.20 C 766.66 435.25, 766.27 436.41, 766.27 438.16 C 766.27 439.91, 766.41 440.81, 767.32 441.95 C 768.23 443.10, 768.98 443.57, 770.81 443.87 C 772.65 444.17, 773.90 444.11, 776.49 443.46 C 779.08 442.81, 780.62 442.04, 783.78 440.61 C 786.93 439.19, 788.78 438.17, 792.28 436.35 C 795.78 434.52, 797.76 433.39, 801.28 431.47 C 804.81 429.55, 806.70 428.45, 809.89 426.73 C 813.08 425.01, 814.76 424.24, 817.23 422.87 C 819.70 421.49, 820.79 420.86, 822.26 419.87 C 823.73 418.88, 824.19 418.51, 824.58 417.90 C 824.97 417.29, 824.77 417.02, 824.22 416.80 C 823.67 416.58, 823.02 416.49, 821.82 416.82 C 820.63 417.15, 819.79 417.51, 818.25 418.45 C 816.70 419.39, 815.85 420.11, 814.10 421.50 C 812.35 422.88, 811.30 423.71, 809.49 425.37 C 807.68 427.02, 806.64 427.99, 805.04 429.78 C 803.44 431.56, 802.61 432.57, 801.49 434.29 C 800.37 436.01, 799.83 436.91, 799.43 438.40 C 799.03 439.88, 799.04 440.66, 799.49 441.73 C 799.93 442.80, 800.47 443.32, 801.66 443.74 C 802.86 444.17, 803.75 444.21, 805.48 443.85 C 807.20 443.49, 808.24 443.03, 810.29 441.94 C 812.33 440.86, 813.50 440.06, 815.70 438.43 C 817.90 436.79, 819.12 435.71, 821.29 433.76 C 823.46 431.81, 824.67 430.68, 826.54 428.68 C 828.42 426.68, 829.53 425.45, 830.66 423.76 C 831.79 422.07, 832.14 421.13, 832.21 420.23 C 832.28 419.34, 831.85 419.07, 831.02 419.28 C 830.18 419.49, 829.28 419.99, 828.01 421.27 C 826.75 422.56, 825.80 423.72, 824.71 425.71 C 823.62 427.69, 823.11 429.11, 822.57 431.18 C 822.03 433.26, 821.82 434.36, 822.02 436.08 C 822.21 437.80, 822.54 438.62, 823.56 439.77 C 824.58 440.92, 825.35 441.42, 827.14 441.82 C 828.93 442.23, 830.11 442.23, 832.52 441.81 C 834.92 441.38, 836.38 440.87, 839.17 439.70 C 841.96 438.53, 843.50 437.61, 846.47 435.96 C 849.43 434.31, 851.08 433.27, 854.00 431.44 C 856.93 429.62, 858.49 428.58, 861.07 426.82 C 863.66 425.07, 864.93 424.14, 866.91 422.65 C 868.89 421.17, 869.77 420.46, 871.00 419.38 C 872.22 418.31, 872.66 417.79, 873.03 417.28 C 873.39 416.78, 873.18 416.63, 872.83 416.85 C 872.48 417.08, 871.94 417.43, 871.27 418.39 C 870.61 419.36, 870.12 420.11, 869.49 421.67 C 868.86 423.23, 868.56 424.32, 868.13 426.17 C 867.70 428.03, 867.46 429.09, 867.36 430.95 C 867.25 432.81, 867.26 433.78, 867.61 435.47 C 867.96 437.16, 868.25 438.02, 869.10 439.40 C 869.96 440.78, 870.58 441.42, 871.90 442.37 C 873.22 443.31, 874.04 443.69, 875.71 444.13 C 877.38 444.57, 878.37 444.65, 880.25 444.56 C 882.14 444.47, 883.18 444.26, 885.14 443.67 C 887.10 443.08, 888.16 442.61, 890.04 441.59 C 891.93 440.56, 892.89 439.90, 894.57 438.55 C 896.25 437.20, 897.09 436.40, 898.46 434.83 C 899.83 433.26, 900.45 432.35, 901.41 430.69 C 902.37 429.02, 902.78 428.11, 903.24 426.51 C 903.71 424.91, 903.89 423.95, 903.73 422.69 C 903.57 421.43, 903.20 420.73, 902.43 420.22 C 901.65 419.70, 900.94 419.62, 899.85 420.09 C 898.77 420.57, 898.07 421.18, 897.01 422.57 C 895.96 423.96, 895.41 425.07, 894.58 427.05 C 893.74 429.04, 893.35 430.30, 892.84 432.48 C 892.32 434.65, 892.10 435.87, 892.00 437.93 C 891.90 439.99, 891.94 441.03, 892.34 442.79 C 892.74 444.55, 893.07 445.40, 893.99 446.72 C 894.90 448.05, 895.52 448.67, 896.92 449.43 C 898.32 450.19, 899.21 450.44, 900.99 450.53 C 902.78 450.62, 903.80 450.49, 905.85 449.89 C 907.89 449.29, 909.01 448.75, 911.22 447.52 C 913.43 446.29, 914.64 445.45, 916.91 443.73 C 919.19 442.00, 920.37 440.87, 922.59 438.91 C 924.81 436.94, 926.01 435.84, 928.03 433.90 C 930.04 431.96, 931.20 430.78, 932.66 429.20 C 934.12 427.62, 934.73 426.78, 935.33 426.02 C 935.93 425.27, 935.84 425.11, 935.64 425.43 C 935.43 425.76, 934.94 426.31, 934.30 427.66 C 933.65 429.01, 933.01 430.19, 932.40 432.19 C 931.79 434.19, 931.49 435.57, 931.23 437.66 C 930.98 439.74, 930.86 440.88, 931.12 442.62 C 931.39 444.37, 931.62 445.19, 932.54 446.38 C 933.46 447.57, 934.15 448.09, 935.71 448.57 C 937.27 449.05, 938.27 449.10, 940.33 448.79 C 942.40 448.49, 943.62 448.08, 946.05 447.04 C 948.47 446.01, 949.81 445.21, 952.45 443.62 C 955.09 442.04, 956.53 440.96, 959.25 439.13 C 961.97 437.31, 963.47 436.21, 966.04 434.49 C 968.61 432.77, 969.98 431.89, 972.10 430.52 C 974.22 429.15, 975.31 428.43, 976.65 427.64 C 977.99 426.84, 978.43 426.57, 978.80 426.55 C 979.18 426.54, 978.93 426.77, 978.52 427.56 C 978.10 428.35, 977.56 429.04, 976.73 430.52 C 975.89 431.99, 975.25 433.10, 974.32 434.93 C 973.39 436.76, 972.79 437.91, 972.08 439.68 C 971.36 441.44, 970.94 442.37, 970.76 443.74 C 970.58 445.11, 970.61 445.79, 971.17 446.54 C 971.73 447.30, 972.27 447.57, 973.55 447.51 C 974.84 447.46, 975.72 447.16, 977.58 446.27 C 979.45 445.37, 980.60 444.57, 982.86 443.04 C 985.13 441.51, 986.45 440.34, 988.90 438.63 C 991.36 436.93, 992.84 435.99, 995.14 434.50 C 997.44 433.01, 998.76 432.18, 1000.39 431.17 C 1002.01 430.16, 1002.65 429.73, 1003.27 429.45 C 1003.89 429.16, 1003.78 429.24, 1003.48 429.75 C 1003.18 430.25, 1002.62 430.78, 1001.76 431.97 C 1000.91 433.15, 1000.12 434.09, 999.21 435.67 C 998.30 437.25, 997.72 438.30, 997.20 439.85 C 996.69 441.39, 996.46 442.25, 996.62 443.38 C 996.78 444.51, 997.06 445.04, 998.02 445.48 C 998.97 445.92, 999.73 445.96, 1001.40 445.57 C 1003.07 445.19, 1004.17 444.69, 1006.37 443.57 C 1008.56 442.44, 1009.88 441.47, 1012.37 439.96 C 1014.86 438.46, 1016.37 437.50, 1018.84 436.03 C 1021.30 434.55, 1022.79 433.70, 1024.72 432.59 C 1026.65 431.48, 1027.51 430.94, 1028.49 430.47 C 1029.47 430.00, 1029.62 429.93, 1029.62 430.22 C 1029.63 430.50, 1029.19 430.86, 1028.51 431.89 C 1027.84 432.93, 1027.09 433.80, 1026.25 435.41 C 1025.41 437.03, 1024.86 438.17, 1024.32 439.98 C 1023.79 441.78, 1023.52 442.82, 1023.59 444.44 C 1023.66 446.07, 1023.80 446.95, 1024.69 448.09 C 1025.57 449.24, 1026.31 449.75, 1028.02 450.17 C 1029.74 450.60, 1030.89 450.61, 1033.26 450.23 C 1035.64 449.84, 1037.08 449.36, 1039.89 448.23 C 1042.71 447.10, 1044.34 446.20, 1047.34 444.57 C 1050.35 442.94, 1052.04 441.92, 1054.92 440.08 C 1057.81 438.25, 1059.39 437.23, 1061.78 435.40 C 1064.17 433.57, 1065.35 432.58, 1066.87 430.92 C 1068.39 429.26, 1068.96 428.40, 1069.39 427.09 C 1069.81 425.78, 1069.68 425.09, 1068.99 424.36 C 1068.30 423.62, 1067.51 423.30, 1065.95 423.40 C 1064.38 423.51, 1063.19 423.84, 1061.17 424.90 C 1059.15 425.96, 1057.87 426.90, 1055.84 428.70 C 1053.81 430.49, 1052.67 431.72, 1051.02 433.88 C 1049.36 436.04, 1048.46 437.30, 1047.55 439.51 C 1046.63 441.71, 1046.30 442.97, 1046.44 444.90 C 1046.58 446.83, 1046.98 447.83, 1048.25 449.16 C 1049.53 450.48, 1050.56 451.06, 1052.82 451.52 C 1055.09 451.98, 1056.57 452.01, 1059.58 451.46 C 1062.59 450.90, 1064.35 450.23, 1067.87 448.77 C 1071.38 447.31, 1073.35 446.32, 1077.13 444.16 C 1080.92 442.00, 1082.97 440.66, 1086.77 437.98 C 1090.57 435.31, 1092.56 433.76, 1096.13 430.77 C 1099.69 427.77, 1101.48 426.10, 1104.58 423.01 C 1107.69 419.93, 1109.20 418.28, 1111.66 415.34 C 1114.12 412.41, 1115.30 410.94, 1116.89 408.33 C 1118.49 405.72, 1119.06 404.42, 1119.63 402.30 C 1120.20 400.18, 1120.20 399.18, 1119.75 397.73 C 1119.31 396.27, 1118.73 395.61, 1117.41 395.03 C 1116.08 394.45, 1115.11 394.32, 1113.14 394.83 C 1111.16 395.33, 1109.88 395.85, 1107.53 397.56 C 1105.19 399.27, 1103.92 400.66, 1101.43 403.38 C 1098.93 406.10, 1097.50 407.83, 1095.07 411.17 C 1092.65 414.50, 1091.32 416.48, 1089.31 420.06 C 1087.29 423.64, 1086.33 425.63, 1085.00 429.09 C 1083.68 432.54, 1083.11 434.31, 1082.68 437.35 C 1082.25 440.39, 1082.33 441.88, 1082.86 444.28 C 1083.40 446.68, 1083.98 447.77, 1085.35 449.37 C 1086.73 450.96, 1087.73 451.56, 1089.73 452.25 C 1091.72 452.94, 1092.99 453.03, 1095.32 452.82 C 1097.66 452.60, 1099.04 452.19, 1101.41 451.16 C 1103.77 450.14, 1105.06 449.30, 1107.15 447.69 C 1109.23 446.09, 1110.26 445.00, 1111.83 443.13 C 1113.40 441.25, 1114.08 440.13, 1115.00 438.30 C 1115.92 436.48, 1116.16 435.49, 1116.43 434.00 C 1116.69 432.50, 1116.55 431.79, 1116.32 430.84 C 1116.08 429.89, 1115.67 429.49, 1115.24 429.24 C 1114.81 429.00, 1114.27 429.22, 1114.17 429.61 C 1114.08 430.00, 1114.05 430.63, 1114.76 431.19 C 1115.46 431.76, 1116.13 432.11, 1117.71 432.42 C 1119.30 432.73, 1120.38 432.79, 1122.69 432.75 C 1125.00 432.72, 1126.45 432.62, 1129.26 432.25 C 1132.07 431.87, 1133.71 431.46, 1136.75 430.88 C 1139.79 430.30, 1141.50 429.95, 1144.44 429.34 C 1147.39 428.72, 1148.99 428.40, 1151.46 427.81 C 1153.93 427.22, 1155.17 426.93, 1156.81 426.40 C 1158.45 425.88, 1159.09 425.60, 1159.65 425.18 C 1160.21 424.77, 1160.14 424.46, 1159.62 424.33 C 1159.09 424.20, 1158.41 424.11, 1157.02 424.54 C 1155.63 424.97, 1154.56 425.39, 1152.64 426.50 C 1150.73 427.60, 1149.51 428.51, 1147.44 430.08 C 1145.38 431.65, 1144.17 432.60, 1142.32 434.36 C 1140.48 436.13, 1139.50 437.11, 1138.24 438.90 C 1136.97 440.69, 1136.43 441.67, 1136.00 443.31 C 1135.57 444.95, 1135.60 445.80, 1136.10 447.09 C 1136.60 448.37, 1137.15 449.01, 1138.49 449.73 C 1139.82 450.45, 1140.83 450.70, 1142.78 450.70 C 1144.74 450.70, 1146.01 450.45, 1148.25 449.73 C 1150.49 449.00, 1151.76 448.35, 1153.98 447.08 C 1156.20 445.82, 1157.41 444.99, 1159.34 443.40 C 1161.28 441.81, 1162.26 440.86, 1163.66 439.13 C 1165.05 437.40, 1165.61 436.41, 1166.32 434.75 C 1167.02 433.09, 1167.15 432.25, 1167.18 430.84 C 1167.20 429.43, 1166.92 428.74, 1166.45 427.68 C 1165.98 426.63, 1165.51 426.09, 1164.82 425.55 C 1164.13 425.01, 1163.53 424.89, 1163.01 424.99 C 1162.48 425.09, 1162.11 425.58, 1162.18 426.04 C 1162.24 426.50, 1162.46 426.92, 1163.33 427.31 C 1164.20 427.70, 1164.89 427.87, 1166.52 427.98 C 1168.15 428.09, 1169.25 428.00, 1171.47 427.86 C 1173.70 427.72, 1175.06 427.52, 1177.64 427.26 C 1180.23 427.01, 1181.74 426.81, 1184.38 426.57 C 1187.01 426.33, 1188.48 426.15, 1190.83 426.04 C 1193.17 425.94, 1194.43 425.86, 1196.10 426.03 C 1197.76 426.20, 1198.47 426.31, 1199.17 426.89 C 1199.86 427.46, 1199.87 427.82, 1199.57 428.90 C 1199.27 429.99, 1198.76 430.73, 1197.68 432.31 C 1196.60 433.89, 1195.69 434.96, 1194.16 436.80 C 1192.64 438.64, 1191.41 439.76, 1190.06 441.49 C 1188.71 443.21, 1187.91 444.24, 1187.41 445.42 C 1186.90 446.61, 1186.98 447.16, 1187.55 447.43 C 1188.12 447.69, 1188.77 447.53, 1190.26 446.76 C 1191.74 445.98, 1192.90 445.17, 1194.98 443.55 C 1197.06 441.92, 1198.30 440.57, 1200.64 438.64 C 1202.98 436.70, 1204.33 435.60, 1206.68 433.86 C 1209.03 432.13, 1210.30 431.28, 1212.38 429.97 C 1214.45 428.66, 1215.46 428.09, 1217.07 427.33 C 1218.67 426.56, 1219.33 426.34, 1220.41 426.13 C 1221.49 425.91, 1221.82 425.98, 1222.46 426.23 C 1223.10 426.49, 1223.22 426.79, 1223.62 427.38 C 1224.02 427.98, 1224.09 428.41, 1224.47 429.22 C 1224.85 430.03, 1225.01 430.55, 1225.52 431.45 C 1226.03 432.35, 1226.31 432.89, 1227.01 433.73 C 1227.72 434.57, 1228.11 435.01, 1229.05 435.65 C 1230.00 436.29, 1230.56 436.60, 1231.75 436.93 C 1232.93 437.25, 1233.60 437.32, 1234.96 437.28 C 1236.32 437.24, 1237.07 437.09, 1238.54 436.71 C 1240.01 436.34, 1240.80 436.03, 1242.32 435.39 C 1243.83 434.76, 1244.64 434.30, 1246.11 433.53 C 1247.59 432.76, 1248.38 432.35, 1249.69 431.54 C 1251.00 430.73, 1251.85 430.20, 1252.67 429.48 C 1253.48 428.76, 1253.59 428.17, 1253.76 427.94 C 1253.93 427.70, 1253.43 428.24, 1253.50 428.31 C 1253.56 428.39, 1254.02 428.57, 1254.07 428.30 C 1254.13 428.03, 1254.33 427.20, 1253.78 426.95 C 1253.23 426.71, 1252.45 426.70, 1251.31 427.07 C 1250.18 427.45, 1249.43 428.08, 1248.10 428.82 C 1246.77 429.56, 1246.07 430.05, 1244.67 430.79 C 1243.27 431.52, 1242.48 431.90, 1241.09 432.49 C 1239.71 433.08, 1238.99 433.36, 1237.73 433.73 C 1236.46 434.10, 1235.84 434.23, 1234.78 434.33 C 1233.73 434.44, 1233.26 434.42, 1232.43 434.24 C 1231.60 434.05, 1231.25 433.86, 1230.62 433.41 C 1229.99 432.95, 1229.77 432.64, 1229.28 431.95 C 1228.79 431.26, 1228.64 430.79, 1228.17 429.96 C 1227.71 429.13, 1227.52 428.63, 1226.96 427.79 C 1226.39 426.96, 1226.12 426.48, 1225.36 425.80 C 1224.59 425.12, 1224.18 424.73, 1223.13 424.37 C 1222.08 424.01, 1221.52 423.88, 1220.11 424.00 C 1218.70 424.13, 1217.92 424.30, 1216.08 425.00 C 1214.23 425.71, 1213.13 426.24, 1210.91 427.52 C 1208.68 428.81, 1207.39 429.72, 1204.93 431.42 C 1202.47 433.12, 1201.08 434.20, 1198.60 436.03 C 1196.12 437.86, 1194.55 438.84, 1192.54 440.57 C 1190.53 442.30, 1189.57 443.38, 1188.54 444.67 C 1187.52 445.95, 1187.32 446.58, 1187.41 447.00 C 1187.50 447.42, 1187.94 447.40, 1188.99 446.77 C 1190.04 446.14, 1191.05 445.37, 1192.65 443.83 C 1194.25 442.30, 1195.45 441.08, 1197.00 439.08 C 1198.56 437.09, 1199.47 435.86, 1200.42 433.87 C 1201.38 431.89, 1201.75 430.82, 1201.76 429.15 C 1201.78 427.48, 1201.53 426.67, 1200.49 425.54 C 1199.45 424.41, 1198.51 423.99, 1196.57 423.49 C 1194.62 422.99, 1193.26 423.05, 1190.78 423.02 C 1188.29 423.00, 1186.81 423.19, 1184.13 423.36 C 1181.44 423.53, 1179.92 423.69, 1177.35 423.88 C 1174.78 424.06, 1173.43 424.20, 1171.28 424.29 C 1169.12 424.39, 1168.12 424.32, 1166.60 424.36 C 1165.07 424.41, 1164.51 424.32, 1163.65 424.51 C 1162.79 424.70, 1162.59 424.90, 1162.31 425.31 C 1162.03 425.71, 1162.09 426.10, 1162.26 426.53 C 1162.42 426.97, 1162.71 427.05, 1163.13 427.48 C 1163.55 427.91, 1164.00 428.04, 1164.35 428.69 C 1164.70 429.35, 1164.96 429.75, 1164.89 430.75 C 1164.82 431.74, 1164.68 432.36, 1164.00 433.66 C 1163.32 434.97, 1162.79 435.81, 1161.48 437.28 C 1160.16 438.74, 1159.24 439.59, 1157.42 440.98 C 1155.60 442.37, 1154.43 443.12, 1152.39 444.23 C 1150.34 445.35, 1149.15 445.88, 1147.19 446.56 C 1145.23 447.25, 1144.16 447.44, 1142.60 447.65 C 1141.04 447.86, 1140.33 447.84, 1139.39 447.60 C 1138.45 447.35, 1138.13 447.14, 1137.90 446.43 C 1137.66 445.72, 1137.71 445.22, 1138.23 444.06 C 1138.74 442.90, 1139.23 442.10, 1140.48 440.63 C 1141.73 439.17, 1142.66 438.27, 1144.47 436.73 C 1146.28 435.20, 1147.49 434.35, 1149.52 432.96 C 1151.56 431.57, 1152.86 430.95, 1154.65 429.80 C 1156.45 428.65, 1157.37 428.16, 1158.48 427.23 C 1159.59 426.29, 1160.02 425.81, 1160.22 425.14 C 1160.42 424.47, 1160.29 424.13, 1159.49 423.87 C 1158.70 423.62, 1157.99 423.66, 1156.25 423.87 C 1154.52 424.09, 1153.30 424.42, 1150.82 424.94 C 1148.34 425.46, 1146.77 425.87, 1143.85 426.47 C 1140.93 427.07, 1139.23 427.45, 1136.23 427.93 C 1133.23 428.40, 1131.59 428.60, 1128.87 428.85 C 1126.15 429.11, 1124.79 429.19, 1122.65 429.20 C 1120.52 429.22, 1119.60 429.03, 1118.19 428.93 C 1116.79 428.83, 1116.39 428.67, 1115.64 428.71 C 1114.90 428.76, 1114.79 428.91, 1114.48 429.15 C 1114.16 429.40, 1114.12 429.54, 1114.07 429.94 C 1114.02 430.33, 1114.24 430.42, 1114.23 431.13 C 1114.23 431.83, 1114.37 432.29, 1114.04 433.47 C 1113.71 434.64, 1113.47 435.45, 1112.57 436.99 C 1111.68 438.54, 1111.03 439.54, 1109.57 441.18 C 1108.11 442.83, 1107.15 443.79, 1105.26 445.22 C 1103.38 446.65, 1102.20 447.38, 1100.14 448.33 C 1098.08 449.28, 1096.91 449.65, 1094.97 449.96 C 1093.03 450.27, 1092.04 450.29, 1090.46 449.88 C 1088.88 449.46, 1088.12 449.10, 1087.06 447.89 C 1086.01 446.67, 1085.57 445.84, 1085.19 443.80 C 1084.81 441.76, 1084.78 440.49, 1085.16 437.70 C 1085.54 434.91, 1085.90 433.18, 1087.10 429.87 C 1088.31 426.55, 1089.23 424.59, 1091.19 421.12 C 1093.15 417.65, 1094.47 415.71, 1096.90 412.53 C 1099.33 409.36, 1100.82 407.69, 1103.34 405.24 C 1105.86 402.78, 1107.36 401.81, 1109.50 400.24 C 1111.64 398.67, 1112.57 398.08, 1114.03 397.38 C 1115.50 396.68, 1116.03 396.58, 1116.82 396.73 C 1117.62 396.88, 1117.89 397.16, 1118.02 398.13 C 1118.14 399.11, 1118.08 399.83, 1117.43 401.61 C 1116.78 403.40, 1116.25 404.56, 1114.77 407.05 C 1113.29 409.53, 1112.35 411.10, 1110.04 414.03 C 1107.74 416.96, 1106.26 418.62, 1103.25 421.68 C 1100.23 424.75, 1098.46 426.42, 1094.95 429.36 C 1091.43 432.31, 1089.45 433.84, 1085.68 436.43 C 1081.92 439.02, 1079.86 440.31, 1076.12 442.32 C 1072.37 444.33, 1070.38 445.23, 1066.97 446.46 C 1063.55 447.68, 1061.79 447.98, 1059.05 448.46 C 1056.30 448.94, 1055.09 449.02, 1053.23 448.85 C 1051.36 448.69, 1050.64 448.43, 1049.74 447.63 C 1048.84 446.83, 1048.64 446.24, 1048.72 444.86 C 1048.79 443.47, 1049.15 442.50, 1050.12 440.72 C 1051.08 438.93, 1051.93 437.79, 1053.54 435.93 C 1055.15 434.06, 1056.29 432.98, 1058.17 431.39 C 1060.06 429.79, 1061.28 429.06, 1062.96 427.95 C 1064.63 426.84, 1065.50 426.40, 1066.56 425.85 C 1067.62 425.31, 1068.00 425.13, 1068.24 425.21 C 1068.49 425.29, 1068.42 425.49, 1067.78 426.26 C 1067.13 427.03, 1066.56 427.68, 1065.02 429.06 C 1063.48 430.44, 1062.37 431.40, 1060.07 433.16 C 1057.77 434.93, 1056.31 436.07, 1053.51 437.86 C 1050.71 439.65, 1049.02 440.64, 1046.07 442.11 C 1043.11 443.58, 1041.41 444.22, 1038.73 445.22 C 1036.05 446.22, 1034.71 446.62, 1032.65 447.11 C 1030.58 447.60, 1029.69 447.73, 1028.41 447.68 C 1027.14 447.64, 1026.74 447.49, 1026.29 446.88 C 1025.84 446.26, 1025.92 445.75, 1026.17 444.61 C 1026.42 443.47, 1026.85 442.69, 1027.55 441.17 C 1028.24 439.64, 1028.95 438.67, 1029.65 436.99 C 1030.34 435.31, 1030.82 434.23, 1031.02 432.77 C 1031.22 431.31, 1031.22 430.52, 1030.63 429.69 C 1030.04 428.85, 1029.53 428.55, 1028.08 428.60 C 1026.64 428.65, 1025.58 429.02, 1023.40 429.94 C 1021.23 430.86, 1019.78 431.81, 1017.22 433.22 C 1014.67 434.63, 1013.15 435.57, 1010.63 437.00 C 1008.12 438.43, 1006.69 439.19, 1004.63 440.36 C 1002.58 441.53, 1001.61 442.11, 1000.35 442.85 C 999.09 443.60, 998.70 443.92, 998.32 444.07 C 997.95 444.22, 998.10 444.16, 998.47 443.60 C 998.83 443.04, 999.32 442.49, 1000.15 441.29 C 1000.97 440.10, 1001.71 439.20, 1002.61 437.61 C 1003.51 436.03, 1004.16 434.92, 1004.63 433.35 C 1005.11 431.78, 1005.25 430.83, 1004.97 429.76 C 1004.68 428.69, 1004.36 428.20, 1003.20 428.00 C 1002.05 427.79, 1001.14 427.98, 999.19 428.74 C 997.23 429.49, 995.86 430.33, 993.44 431.77 C 991.02 433.22, 989.63 434.32, 987.11 435.96 C 984.58 437.60, 983.07 438.51, 980.83 439.98 C 978.58 441.46, 977.46 442.25, 975.89 443.34 C 974.32 444.44, 973.71 444.94, 972.96 445.46 C 972.22 445.99, 972.16 446.17, 972.18 445.97 C 972.20 445.78, 972.51 445.46, 973.08 444.49 C 973.65 443.52, 974.12 442.69, 975.03 441.12 C 975.95 439.55, 976.69 438.49, 977.66 436.64 C 978.62 434.79, 979.28 433.63, 979.84 431.87 C 980.41 430.10, 980.62 429.12, 980.48 427.83 C 980.35 426.54, 980.14 425.90, 979.19 425.43 C 978.23 424.96, 977.45 424.97, 975.73 425.49 C 974.00 426.02, 972.82 426.72, 970.57 428.06 C 968.32 429.40, 967.05 430.43, 964.48 432.18 C 961.90 433.94, 960.43 435.06, 957.72 436.82 C 955.01 438.58, 953.52 439.54, 950.92 440.98 C 948.33 442.43, 946.99 443.06, 944.75 444.04 C 942.52 445.02, 941.45 445.42, 939.75 445.87 C 938.05 446.31, 937.35 446.40, 936.25 446.26 C 935.15 446.11, 934.75 445.90, 934.25 445.14 C 933.75 444.38, 933.68 443.83, 933.75 442.46 C 933.81 441.09, 934.10 440.13, 934.58 438.29 C 935.07 436.45, 935.66 435.24, 936.18 433.26 C 936.70 431.28, 937.08 430.00, 937.17 428.37 C 937.26 426.74, 937.17 425.88, 936.62 425.12 C 936.07 424.36, 935.60 424.18, 934.40 424.58 C 933.21 424.97, 932.36 425.66, 930.65 427.07 C 928.94 428.49, 927.88 429.74, 925.87 431.65 C 923.86 433.56, 922.77 434.74, 920.60 436.64 C 918.42 438.54, 917.18 439.53, 914.99 441.16 C 912.80 442.78, 911.66 443.59, 909.65 444.76 C 907.64 445.93, 906.65 446.41, 904.93 447.02 C 903.20 447.62, 902.41 447.75, 901.04 447.79 C 899.66 447.83, 899.06 447.72, 898.06 447.23 C 897.06 446.75, 896.65 446.36, 896.02 445.37 C 895.39 444.38, 895.14 443.73, 894.92 442.29 C 894.70 440.85, 894.69 439.96, 894.91 438.17 C 895.13 436.38, 895.42 435.28, 896.02 433.35 C 896.62 431.41, 897.16 430.28, 897.93 428.48 C 898.70 426.69, 899.24 425.70, 899.89 424.36 C 900.54 423.02, 900.83 422.42, 901.17 421.79 C 901.50 421.16, 901.54 421.05, 901.57 421.22 C 901.60 421.39, 901.52 421.76, 901.32 422.65 C 901.12 423.53, 901.04 424.33, 900.57 425.65 C 900.09 426.97, 899.82 427.81, 898.96 429.26 C 898.10 430.71, 897.52 431.51, 896.27 432.90 C 895.02 434.29, 894.25 435.01, 892.71 436.21 C 891.18 437.41, 890.29 438.00, 888.60 438.91 C 886.90 439.82, 885.95 440.22, 884.24 440.76 C 882.54 441.29, 881.64 441.46, 880.07 441.59 C 878.49 441.72, 877.70 441.67, 876.37 441.39 C 875.04 441.11, 874.43 440.85, 873.42 440.18 C 872.41 439.51, 871.94 439.08, 871.32 438.05 C 870.69 437.01, 870.49 436.36, 870.29 435.00 C 870.10 433.63, 870.14 432.82, 870.36 431.24 C 870.59 429.66, 870.90 428.73, 871.43 427.08 C 871.97 425.43, 872.50 424.52, 873.03 423.00 C 873.55 421.48, 873.89 420.70, 874.07 419.48 C 874.25 418.25, 874.26 417.56, 873.93 416.88 C 873.61 416.19, 873.29 415.95, 872.42 416.06 C 871.54 416.17, 870.98 416.55, 869.56 417.43 C 868.13 418.31, 867.29 419.01, 865.29 420.44 C 863.29 421.88, 862.08 422.85, 859.55 424.61 C 857.02 426.37, 855.51 427.46, 852.64 429.25 C 849.76 431.03, 848.10 432.04, 845.17 433.54 C 842.24 435.04, 840.63 435.71, 837.98 436.75 C 835.32 437.78, 833.97 438.20, 831.87 438.71 C 829.78 439.23, 828.87 439.37, 827.51 439.31 C 826.15 439.25, 825.69 439.06, 825.08 438.40 C 824.46 437.74, 824.33 437.24, 824.44 436.01 C 824.56 434.79, 824.88 433.92, 825.65 432.27 C 826.43 430.61, 827.30 429.54, 828.33 427.73 C 829.36 425.93, 830.09 424.77, 830.81 423.25 C 831.53 421.73, 831.86 420.88, 831.92 420.14 C 831.99 419.41, 831.82 419.20, 831.12 419.55 C 830.41 419.91, 829.77 420.53, 828.40 421.92 C 827.02 423.30, 826.09 424.59, 824.24 426.48 C 822.40 428.38, 821.28 429.53, 819.17 431.38 C 817.07 433.23, 815.82 434.19, 813.72 435.71 C 811.61 437.23, 810.47 437.92, 808.65 438.97 C 806.82 440.02, 805.93 440.41, 804.61 440.96 C 803.30 441.51, 802.77 441.68, 802.06 441.72 C 801.36 441.77, 801.17 441.69, 801.08 441.19 C 801.00 440.69, 801.10 440.27, 801.65 439.23 C 802.20 438.18, 802.70 437.41, 803.83 435.95 C 804.97 434.49, 805.76 433.53, 807.33 431.91 C 808.90 430.28, 809.90 429.35, 811.67 427.81 C 813.44 426.28, 814.45 425.47, 816.17 424.23 C 817.88 422.98, 818.84 422.55, 820.26 421.59 C 821.67 420.64, 822.39 420.25, 823.26 419.46 C 824.12 418.67, 824.44 418.15, 824.58 417.64 C 824.72 417.13, 824.67 416.86, 823.98 416.89 C 823.28 416.93, 822.74 417.11, 821.13 417.83 C 819.51 418.55, 818.38 419.12, 815.91 420.49 C 813.44 421.87, 811.90 422.90, 808.77 424.71 C 805.63 426.51, 803.73 427.62, 800.22 429.52 C 796.71 431.42, 794.72 432.52, 791.21 434.22 C 787.70 435.91, 785.78 436.78, 782.67 438.00 C 779.56 439.23, 777.99 439.66, 775.65 440.35 C 773.31 441.03, 772.34 441.34, 770.97 441.44 C 769.59 441.54, 769.20 441.44, 768.76 440.84 C 768.32 440.24, 768.44 439.72, 768.78 438.44 C 769.12 437.16, 769.63 436.22, 770.47 434.45 C 771.32 432.67, 772.11 431.52, 773.01 429.56 C 773.90 427.61, 774.53 426.42, 774.94 424.68 C 775.35 422.94, 775.48 421.97, 775.08 420.87 C 774.67 419.77, 774.24 419.31, 772.90 419.17 C 771.56 419.02, 770.54 419.25, 768.37 420.16 C 766.20 421.06, 764.75 422.01, 762.06 423.69 C 759.36 425.36, 757.76 426.59, 754.88 428.52 C 752.00 430.46, 750.32 431.61, 747.65 433.38 C 744.98 435.14, 743.52 436.01, 741.53 437.36 C 739.55 438.71, 738.73 439.39, 737.71 440.13 C 736.69 440.87, 736.53 441.14, 736.43 441.05 C 736.33 440.95, 736.63 440.66, 737.22 439.67 C 737.81 438.68, 738.39 437.79, 739.38 436.10 C 740.38 434.40, 741.14 433.21, 742.18 431.19 C 743.21 429.17, 743.91 427.93, 744.55 426.00 C 745.19 424.06, 745.46 422.95, 745.37 421.51 C 745.29 420.06, 745.04 419.35, 744.13 418.75 C 743.22 418.15, 742.53 418.08, 740.82 418.51 C 739.11 418.94, 737.96 419.48, 735.60 420.92 C 733.24 422.36, 731.83 423.57, 729.01 425.71 C 726.19 427.85, 724.49 429.26, 721.50 431.63 C 718.51 434.00, 716.80 435.41, 714.06 437.55 C 711.33 439.69, 709.81 440.71, 707.83 442.35 C 705.85 443.99, 705.11 444.86, 704.15 445.74 C 703.19 446.63, 703.06 446.94, 703.05 446.79 C 703.03 446.65, 703.35 446.26, 704.07 445.01 C 704.80 443.76, 705.46 442.66, 706.68 440.52 C 707.90 438.38, 708.75 436.86, 710.20 434.30 C 711.65 431.74, 712.66 430.23, 713.93 427.73 C 715.19 425.23, 715.89 423.83, 716.52 421.80 C 717.15 419.78, 717.31 418.77, 717.09 417.60 C 716.88 416.42, 716.24 416.15, 715.45 415.94 C 714.66 415.73, 713.71 415.99, 713.16 416.54 C 712.60 417.09, 712.52 418.09, 712.69 418.68 C 712.85 419.28, 713.41 419.54, 713.98 419.51" style="stroke: black; fill: black;"/><path d="M 1251.78,408.14 C 1252.20 407.97, 1252.52 407.72, 1252.50 407.49 C 1252.49 407.27, 1252.19 407.05, 1251.71 407.03 C 1251.24 407.00, 1250.56 407.16, 1250.13 407.36 C 1249.71 407.56, 1249.52 407.84, 1249.58 408.03 C 1249.65 408.23, 1250.01 408.32, 1250.45 408.34 C 1250.89 408.37, 1251.37 408.31, 1251.78 408.14" style="stroke: black; fill: black;"/><path d="M 1276.26,430.58 C 1276.50 431.04, 1276.95 431.46, 1277.56 431.53 C 1278.17 431.60, 1278.94 431.39, 1279.30 430.94 C 1279.66 430.49, 1279.68 429.75, 1279.37 429.27 C 1279.06 428.79, 1278.34 428.54, 1277.74 428.54 C 1277.14 428.54, 1276.67 428.85, 1276.38 429.26 C 1276.08 429.67, 1276.03 430.13, 1276.26 430.58" style="stroke: black; fill: black;"/><path d="M 1318.19,438.24 C 1318.44 438.45, 1318.93 438.28, 1319.00 437.96 C 1319.07 437.63, 1318.79 436.81, 1318.53 436.59 C 1318.27 436.38, 1317.79 436.55, 1317.72 436.88 C 1317.65 437.20, 1317.93 438.02, 1318.19 438.24" style="stroke: black; fill: black;"/><path d="M 1325.14,437.15 C 1325.75 437.45, 1326.51 437.64, 1328.09 437.52 C 1329.67 437.41, 1330.80 437.29, 1333.05 436.57 C 1335.30 435.84, 1336.76 435.27, 1339.36 433.91 C 1341.95 432.56, 1343.36 431.55, 1346.03 429.79 C 1348.70 428.03, 1350.16 427.02, 1352.69 425.13 C 1355.22 423.25, 1356.60 422.25, 1358.69 420.37 C 1360.77 418.48, 1361.75 417.46, 1363.11 415.71 C 1364.47 413.95, 1365.02 413.08, 1365.47 411.59 C 1365.91 410.11, 1365.90 409.32, 1365.32 408.27 C 1364.73 407.23, 1364.07 406.69, 1362.55 406.36 C 1361.04 406.04, 1359.92 406.03, 1357.74 406.65 C 1355.55 407.28, 1354.13 407.90, 1351.63 409.48 C 1349.12 411.07, 1347.68 412.33, 1345.21 414.57 C 1342.74 416.81, 1341.34 418.18, 1339.29 420.68 C 1337.24 423.18, 1336.13 424.59, 1334.97 427.07 C 1333.81 429.54, 1333.46 430.91, 1333.48 433.08 C 1333.49 435.25, 1333.86 436.34, 1335.04 437.92 C 1336.22 439.49, 1337.18 440.18, 1339.40 440.95 C 1341.62 441.73, 1343.12 441.93, 1346.14 441.77 C 1349.16 441.62, 1350.95 441.16, 1354.49 440.19 C 1358.03 439.23, 1360.01 438.47, 1363.83 436.96 C 1367.64 435.45, 1369.75 434.46, 1373.57 432.65 C 1377.38 430.83, 1379.38 429.73, 1382.89 427.88 C 1386.41 426.02, 1388.19 425.00, 1391.13 423.39 C 1394.07 421.78, 1395.48 421.02, 1397.61 419.82 C 1399.74 418.63, 1400.58 418.08, 1401.78 417.41 C 1402.98 416.74, 1403.27 416.57, 1403.62 416.49 C 1403.97 416.42, 1403.77 416.52, 1403.51 417.04 C 1403.26 417.56, 1402.87 417.99, 1402.33 419.10 C 1401.80 420.21, 1401.48 421.01, 1400.85 422.59 C 1400.21 424.16, 1399.88 425.15, 1399.16 426.95 C 1398.43 428.75, 1398.05 429.77, 1397.22 431.57 C 1396.38 433.36, 1395.93 434.29, 1394.98 435.93 C 1394.04 437.56, 1393.56 438.37, 1392.48 439.76 C 1391.39 441.15, 1390.82 441.77, 1389.56 442.85 C 1388.30 443.93, 1387.60 444.39, 1386.17 445.17 C 1384.74 445.96, 1383.96 446.27, 1382.42 446.77 C 1380.89 447.27, 1380.05 447.45, 1378.51 447.68 C 1376.96 447.90, 1376.15 447.90, 1374.70 447.92 C 1373.25 447.94, 1372.40 447.82, 1371.24 447.78 C 1370.09 447.73, 1369.65 447.72, 1368.94 447.70 C 1368.23 447.68, 1368.05 447.61, 1367.71 447.68 C 1367.36 447.75, 1367.31 447.91, 1367.22 448.03 C 1367.14 448.15, 1367.32 448.29, 1367.28 448.26 C 1367.24 448.24, 1367.13 447.89, 1367.02 447.92 C 1366.92 447.94, 1366.72 448.14, 1366.75 448.40 C 1366.78 448.66, 1366.82 448.93, 1367.17 449.24 C 1367.53 449.54, 1367.76 449.67, 1368.52 449.93 C 1369.28 450.18, 1369.74 450.34, 1370.98 450.53 C 1372.22 450.72, 1373.13 450.86, 1374.72 450.86 C 1376.32 450.86, 1377.23 450.80, 1378.95 450.53 C 1380.67 450.25, 1381.61 450.07, 1383.33 449.49 C 1385.05 448.91, 1385.93 448.54, 1387.54 447.63 C 1389.15 446.72, 1389.94 446.18, 1391.36 444.95 C 1392.79 443.73, 1393.44 443.01, 1394.67 441.51 C 1395.89 440.00, 1396.42 439.14, 1397.49 437.43 C 1398.55 435.71, 1399.05 434.76, 1399.99 432.93 C 1400.94 431.09, 1401.37 430.07, 1402.20 428.26 C 1403.03 426.45, 1403.51 425.53, 1404.14 423.88 C 1404.77 422.22, 1405.11 421.39, 1405.33 420.01 C 1405.55 418.63, 1405.55 417.92, 1405.25 416.99 C 1404.95 416.05, 1404.69 415.63, 1403.83 415.33 C 1402.98 415.04, 1402.48 415.05, 1400.99 415.50 C 1399.50 415.95, 1398.58 416.40, 1396.38 417.56 C 1394.17 418.73, 1392.87 419.64, 1389.97 421.33 C 1387.07 423.02, 1385.35 424.12, 1381.89 426.01 C 1378.43 427.89, 1376.44 428.98, 1372.67 430.76 C 1368.90 432.53, 1366.79 433.49, 1363.03 434.88 C 1359.27 436.27, 1357.28 436.94, 1353.87 437.71 C 1350.46 438.49, 1348.73 438.60, 1345.98 438.74 C 1343.24 438.89, 1341.99 438.86, 1340.14 438.44 C 1338.28 438.01, 1337.59 437.66, 1336.72 436.60 C 1335.84 435.55, 1335.61 434.81, 1335.76 433.15 C 1335.90 431.49, 1336.30 430.43, 1337.44 428.30 C 1338.58 426.17, 1339.52 424.79, 1341.46 422.49 C 1343.41 420.19, 1344.75 418.80, 1347.15 416.79 C 1349.55 414.77, 1351.12 413.83, 1353.45 412.41 C 1355.77 410.99, 1357.00 410.44, 1358.79 409.69 C 1360.58 408.94, 1361.34 408.79, 1362.38 408.66 C 1363.42 408.52, 1363.75 408.58, 1363.98 409.01 C 1364.21 409.44, 1364.11 409.80, 1363.53 410.80 C 1362.95 411.80, 1362.44 412.53, 1361.08 414.00 C 1359.72 415.48, 1358.75 416.41, 1356.74 418.19 C 1354.73 419.96, 1353.47 421.06, 1351.02 422.89 C 1348.57 424.72, 1347.11 425.73, 1344.48 427.34 C 1341.84 428.94, 1340.35 429.69, 1337.84 430.90 C 1335.33 432.12, 1333.98 432.60, 1331.92 433.42 C 1329.87 434.24, 1328.94 434.49, 1327.55 435.01 C 1326.17 435.53, 1325.49 435.57, 1325.01 436.00 C 1324.53 436.43, 1324.52 436.84, 1325.14 437.15" style="stroke: black; fill: black;"/></svg>